<svg width="23" height="56" viewBox="0 0 23 56" fill="none" xmlns="http://www.w3.org/2000/svg">
<path d="M2.3913 46.4H4.78261V30.6H2.3913C1.07059 30.6 0 29.6206 0 28.4125V23.1875C0 21.9793 1.07059 21 2.3913 21H15.7826C17.1033 21 18.1739 21.9793 18.1739 23.1875V46.4H20.5652C21.8859 46.4 22.9565 47.3794 22.9565 48.5875V53.8125C22.9565 55.0207 21.8859 56 20.5652 56H2.3913C1.07059 56 0 55.0207 0 53.8125V48.5875C0 47.3794 1.07059 46.4 2.3913 46.4ZM11.4783 0C6.72375 0 2.86957 3.5257 2.86957 7.875C2.86957 12.2243 6.72375 15.75 11.4783 15.75C16.2328 15.75 20.087 12.2243 20.087 7.875C20.087 3.5257 16.2327 0 11.4783 0Z" fill="white"/>
</svg>
