<svg width="56" height="62" viewBox="0 0 56 62" fill="none" xmlns="http://www.w3.org/2000/svg">
<path d="M39.3545 6.99125e-06C40.6753 -0.00308443 41.7197 1.0194 41.7228 2.38272L41.7258 4.70655C50.2958 5.37582 55.957 11.1947 55.9662 20.1182L56 46.2381C56.0123 55.9673 49.8781 61.9535 40.0456 61.9689L16.0281 62C6.25707 62.0123 0.0461166 55.8836 0.0338299 46.1266L2.06186e-05 20.3134C-0.0122454 11.331 5.44921 5.52764 14.0192 4.74374L14.0161 2.4199C14.0131 1.05658 15.0267 0.0309985 16.3783 0.0309985C17.7298 0.0279 18.7435 1.05039 18.7465 2.4137L18.7496 4.58262L36.9954 4.55783L36.9924 2.38892C36.9893 1.0256 38.0029 0.00311246 39.3545 6.99125e-06ZM40.6077 43.9949H40.577C39.164 44.0289 38.0306 45.2095 38.0613 46.6347C38.0644 48.06 39.204 49.2343 40.617 49.2653C42.0576 49.2622 43.2248 48.0817 43.2218 46.6254C43.2218 45.1692 42.0514 43.9949 40.6077 43.9949ZM15.297 43.998C13.8841 44.0599 12.7783 45.2404 12.7813 46.6657C12.8458 48.091 14.0131 49.2064 15.4261 49.1414C16.8114 49.0794 17.9141 47.8989 17.8496 46.4736C17.8189 45.0793 16.6793 43.9949 15.297 43.998ZM27.9524 43.9825C26.5394 44.0475 25.4367 45.2249 25.4367 46.6502C25.5012 48.0755 26.6684 49.1879 28.0814 49.1259C29.4637 49.0608 30.5695 47.8834 30.505 46.455C30.4742 45.0638 29.3347 43.9794 27.9524 43.9825ZM15.2817 32.8435C13.8687 32.9055 12.766 34.086 12.769 35.5113C12.8305 36.9366 14.0008 38.052 15.4138 37.987C16.796 37.925 17.8988 36.7445 17.8343 35.3192C17.8035 33.9249 16.667 32.8405 15.2817 32.8435ZM27.9401 32.7351C26.5271 32.7971 25.4213 33.9776 25.4244 35.4029C25.4858 36.8282 26.6561 37.9405 28.0691 37.8785C29.4514 37.8135 30.5541 36.636 30.4927 35.2108C30.4589 33.8165 29.3224 32.732 27.9401 32.7351ZM40.5955 32.7506C39.1825 32.7816 38.0767 33.928 38.0797 35.3533V35.3874C38.1105 36.8127 39.2777 37.894 40.6937 37.863C42.076 37.829 43.1787 36.6484 43.148 35.2232C43.0835 33.8598 41.9746 32.7475 40.5955 32.7506ZM37.0016 9.32944L18.7558 9.35423L18.7588 11.8609C18.7588 13.1963 17.7482 14.2498 16.3967 14.2498C15.0452 14.2529 14.0284 13.2025 14.0284 11.8671L14.0254 9.48126C8.03557 10.0793 4.72122 13.5867 4.73042 20.3072L4.73351 21.2709L51.2388 21.2089V20.1244C51.1068 13.4628 47.7525 9.96772 41.732 9.44718L41.7351 11.833C41.7351 13.1653 40.6937 14.2219 39.3729 14.2219C38.0214 14.225 37.0047 13.1715 37.0047 11.8392L37.0016 9.32944Z" fill="white"/>
</svg>
