<svg width="52" height="42" viewBox="0 0 52 42" fill="none" xmlns="http://www.w3.org/2000/svg">
<path d="M49.4 0H13C12.3104 0 11.6491 0.276562 11.1615 0.768845C10.6739 1.26113 10.4 1.92881 10.4 2.625V10.5H23.4V5.25H39V31.5H49.4C50.0896 31.5 50.7509 31.2234 51.2385 30.7312C51.7261 30.2389 52 29.5712 52 28.875V2.625C52 1.92881 51.7261 1.26113 51.2385 0.768845C50.7509 0.276562 50.0896 0 49.4 0V0ZM18.85 8.44922C18.85 8.64502 18.773 8.83281 18.6358 8.97126C18.4987 9.10972 18.3127 9.1875 18.1187 9.1875H15.6812C15.4873 9.1875 15.3013 9.10972 15.1642 8.97126C15.027 8.83281 14.95 8.64502 14.95 8.44922V5.98828C14.95 5.79248 15.027 5.60469 15.1642 5.46624C15.3013 5.32778 15.4873 5.25 15.6812 5.25H18.1187C18.3127 5.25 18.4987 5.32778 18.6358 5.46624C18.773 5.60469 18.85 5.79248 18.85 5.98828V8.44922ZM47.45 25.5117C47.45 25.7075 47.373 25.8953 47.2358 26.0338C47.0987 26.1722 46.9127 26.25 46.7188 26.25H44.2812C44.0873 26.25 43.9013 26.1722 43.7642 26.0338C43.627 25.8953 43.55 25.7075 43.55 25.5117V23.0508C43.55 22.855 43.627 22.6672 43.7642 22.5287C43.9013 22.3903 44.0873 22.3125 44.2812 22.3125H46.7188C46.9127 22.3125 47.0987 22.3903 47.2358 22.5287C47.373 22.6672 47.45 22.855 47.45 23.0508V25.5117ZM47.45 16.9805C47.45 17.1763 47.373 17.3641 47.2358 17.5025C47.0987 17.641 46.9127 17.7188 46.7188 17.7188H44.2812C44.0873 17.7188 43.9013 17.641 43.7642 17.5025C43.627 17.3641 43.55 17.1763 43.55 16.9805V14.5195C43.55 14.3237 43.627 14.1359 43.7642 13.9975C43.9013 13.859 44.0873 13.7812 44.2812 13.7812H46.7188C46.9127 13.7812 47.0987 13.859 47.2358 13.9975C47.373 14.1359 47.45 14.3237 47.45 14.5195V16.9805ZM47.45 8.44922C47.45 8.64502 47.373 8.83281 47.2358 8.97126C47.0987 9.10972 46.9127 9.1875 46.7188 9.1875H44.2812C44.0873 9.1875 43.9013 9.10972 43.7642 8.97126C43.627 8.83281 43.55 8.64502 43.55 8.44922V5.98828C43.55 5.79248 43.627 5.60469 43.7642 5.46624C43.9013 5.32778 44.0873 5.25 44.2812 5.25H46.7188C46.9127 5.25 47.0987 5.32778 47.2358 5.46624C47.373 5.60469 47.45 5.79248 47.45 5.98828V8.44922ZM33.8 13.125H2.6C1.91044 13.125 1.24912 13.4016 0.761522 13.8938C0.273928 14.3861 0 15.0538 0 15.75L0 39.375C0 40.0712 0.273928 40.7389 0.761522 41.2312C1.24912 41.7234 1.91044 42 2.6 42H33.8C34.4896 42 35.1509 41.7234 35.6385 41.2312C36.1261 40.7389 36.4 40.0712 36.4 39.375V15.75C36.4 15.0538 36.1261 14.3861 35.6385 13.8938C35.1509 13.4016 34.4896 13.125 33.8 13.125ZM7.8 18.375C8.31423 18.375 8.81691 18.529 9.24448 18.8174C9.67205 19.1058 10.0053 19.5158 10.2021 19.9955C10.3989 20.4751 10.4504 21.0029 10.35 21.5121C10.2497 22.0213 10.0021 22.489 9.63848 22.8562C9.27486 23.2233 8.81159 23.4733 8.30723 23.5746C7.80288 23.6758 7.28011 23.6239 6.80502 23.4252C6.32993 23.2265 5.92387 22.8901 5.63818 22.4584C5.35249 22.0267 5.2 21.5192 5.2 21C5.2 20.3038 5.47393 19.6361 5.96152 19.1438C6.44912 18.6516 7.11044 18.375 7.8 18.375ZM31.2 36.75H5.2V34.125L10.4 28.875L13 31.5L23.4 21L31.2 28.875V36.75Z" fill="white"/>
</svg>
