<svg width="56" height="42" viewBox="0 0 56 42" fill="none" xmlns="http://www.w3.org/2000/svg">
<path d="M27.8703 27.6665C36.6042 27.6665 44.0617 29.0944 44.0617 34.8084C44.0617 40.5201 36.652 42 27.8703 42C19.1363 42 11.6788 40.5721 11.6788 34.8604C11.6788 29.1464 19.0885 27.6665 27.8703 27.6665ZM41.8347 24.2258C45.1738 24.162 48.7635 24.6348 50.09 24.9705C52.9003 25.5402 54.7487 26.7034 55.5145 28.3937C56.1618 29.7814 56.1618 31.3914 55.5145 32.7767C54.343 35.3985 50.5664 36.2401 49.0986 36.4576C48.7954 36.5049 48.5515 36.233 48.5835 35.9186C49.3333 28.6538 43.3686 25.2093 41.8256 24.4173C41.7595 24.3818 41.7458 24.3275 41.7527 24.2944C41.7572 24.2707 41.7846 24.2329 41.8347 24.2258ZM13.5382 24.2209L14.167 24.2268C14.2171 24.2338 14.2422 24.2717 14.2468 24.2929C14.2536 24.3284 14.2399 24.3804 14.1761 24.4182C12.6308 25.2102 6.66611 28.6547 7.41597 35.9172C7.44788 36.234 7.20628 36.5035 6.90315 36.4586C5.43534 36.2411 1.65869 35.3995 0.48718 32.7777C-0.162393 31.3899 -0.162393 29.7824 0.48718 28.3946C1.25299 26.7043 3.09915 25.5412 5.90941 24.9691C7.23819 24.6357 10.8257 24.1629 14.167 24.2268L13.5382 24.2209ZM27.8703 0C33.8167 0 38.5848 4.94095 38.5848 11.1112C38.5848 17.2792 33.8167 22.2248 27.8703 22.2248C21.9238 22.2248 17.1557 17.2792 17.1557 11.1112C17.1557 4.94095 21.9238 0 27.8703 0ZM42.4159 1.85298C48.1595 1.85298 52.6701 7.45824 51.1339 13.7018C50.0969 17.9052 46.343 20.6972 42.1607 20.5837C41.7413 20.5719 41.3287 20.5317 40.9299 20.4608C40.6404 20.4087 40.4946 20.0707 40.6587 19.8201C42.2541 17.3851 43.1635 14.456 43.1635 11.3117C43.1635 8.03035 42.1698 4.97121 40.4444 2.46291C40.3897 2.3849 40.3487 2.26433 40.4034 2.17449C40.449 2.10121 40.5333 2.06338 40.6131 2.04447C41.1943 1.92153 41.7914 1.85298 42.4159 1.85298ZM13.5824 1.85274C14.2069 1.85274 14.804 1.9213 15.3875 2.04423C15.465 2.06314 15.5516 2.10333 15.5972 2.17426C15.6496 2.26409 15.6109 2.38466 15.5562 2.46268C13.8308 4.97098 12.8371 8.03011 12.8371 11.3115C12.8371 14.4557 13.7465 17.3848 15.3419 19.8198C15.506 20.0704 15.3601 20.4085 15.0707 20.4605C14.6695 20.5338 14.2593 20.5716 13.8399 20.5834C9.65757 20.6969 5.90372 17.9049 4.86668 13.7016C3.32821 7.458 7.83876 1.85274 13.5824 1.85274Z" fill="white"/>
</svg>
