<svg xmlns="http://www.w3.org/2000/svg" xmlns:xlink="http://www.w3.org/1999/xlink" viewBox="0 0 305.8 237.38"><defs><style>.cls-1{fill:none;}.cls-2{isolation:isolate;}.cls-3{fill:url(#Áåçûìÿííûé_ãðàäèåíò_2);}.cls-4{fill:url(#Áåçûìÿííûé_ãðàäèåíò_24);}.cls-5{fill:#24126a;}.cls-6{opacity:0.51;}.cls-7{fill:#453c9e;}.cls-8{fill:url(#Áåçûìÿííûé_ãðàäèåíò_24-2);}.cls-9{fill:url(#Áåçûìÿííûé_ãðàäèåíò_2-2);}.cls-10{fill:#fff;}.cls-11{opacity:0.15;}.cls-12{clip-path:url(#clip-path);}.cls-13{fill:url(#Áåçûìÿííûé_ãðàäèåíò_24-3);}.cls-14{fill:url(#Áåçûìÿííûé_ãðàäèåíò_2-3);}.cls-15,.cls-18{opacity:0.5;}.cls-16{opacity:0.8;}.cls-17{fill:#42e8e0;}.cls-18{mix-blend-mode:lighten;fill:url(#Áåçûìÿííûé_ãðàäèåíò_21);}</style><linearGradient id="Áåçûìÿííûé_ãðàäèåíò_2" x1="29.7" y1="175.19" x2="186.02" y2="175.19" gradientTransform="matrix(-1, 0, 0, 1, 560.71, 0)" gradientUnits="userSpaceOnUse"><stop offset="0" stop-color="#c0bff6"/><stop offset="0.29" stop-color="#c5c4f7"/><stop offset="0.64" stop-color="#d3d2f9"/><stop offset="1" stop-color="#e9e9fd"/></linearGradient><linearGradient id="Áåçûìÿííûé_ãðàäèåíò_24" x1="29.7" y1="215.28" x2="56.54" y2="215.28" gradientTransform="matrix(-1, 0, 0, 1, 560.71, 0)" gradientUnits="userSpaceOnUse"><stop offset="0" stop-color="#5761d7"/><stop offset="0.18" stop-color="#5c66d9"/><stop offset="0.39" stop-color="#6a73df"/><stop offset="0.61" stop-color="#8289e8"/><stop offset="0.85" stop-color="#a3a7f5"/><stop offset="1" stop-color="#bcbeff"/></linearGradient><linearGradient id="Áåçûìÿííûé_ãðàäèåíò_24-2" x1="50.64" y1="259.02" x2="271.42" y2="259.02" xlink:href="#Áåçûìÿííûé_ãðàäèåíò_24"/><linearGradient id="Áåçûìÿííûé_ãðàäèåíò_2-2" x1="-47.44" y1="252.98" x2="277.89" y2="252.98" xlink:href="#Áåçûìÿííûé_ãðàäèåíò_2"/><clipPath id="clip-path" transform="translate(-289.22 -82.54)"><polygon class="cls-1" points="527.29 164.39 391.33 85.93 374.25 187.5 510.12 265.9 527.29 164.39"/></clipPath><linearGradient id="Áåçûìÿííûé_ãðàäèåíò_24-3" x1="-34.26" y1="210.43" x2="186.52" y2="210.43" xlink:href="#Áåçûìÿííûé_ãðàäèåíò_24"/><linearGradient id="Áåçûìÿííûé_ãðàäèåíò_2-3" x1="39.93" y1="204.39" x2="260.83" y2="204.39" xlink:href="#Áåçûìÿííûé_ãðàäèåíò_2"/><linearGradient id="Áåçûìÿííûé_ãðàäèåíò_21" x1="612.91" y1="182.16" x2="659.54" y2="202.11" gradientTransform="translate(-148.43)" gradientUnits="userSpaceOnUse"><stop offset="0" stop-color="#42e8e0"/><stop offset="0.11" stop-color="#37b6bf"/><stop offset="0.22" stop-color="#2c87a1"/><stop offset="0.34" stop-color="#235f87"/><stop offset="0.46" stop-color="#1c3f72"/><stop offset="0.58" stop-color="#162561"/><stop offset="0.71" stop-color="#121355"/><stop offset="0.85" stop-color="#10084e"/><stop offset="1" stop-color="#0f054c"/></linearGradient></defs><title>Laptop </title><g class="cls-2"><g id="Ñëîé_1" data-name="Ñëîé 1"><path class="cls-3" d="M374.72,184.91,391.65,84.46l-1.36-.58,2-1.17h0a1.48,1.48,0,0,1,1.58.11L529.23,161A3.81,3.81,0,0,1,531,164.4L513.92,265.65a1.26,1.26,0,0,1-.71,1h0l-2,1.16-.35-1.87.12,0L376.47,188.35A3.81,3.81,0,0,1,374.72,184.91Z" transform="translate(-289.22 -82.54)"/><path class="cls-4" d="M528.47,163.71l2.23-1a3,3,0,0,1,.28,1.68L513.92,265.65a1.26,1.26,0,0,1-.71,1h0l-2,1.16-.35-1.87.12,0-6.81-3.93Z" transform="translate(-289.22 -82.54)"/><path class="cls-5" d="M374.35,189.57l135.32,78.12c1.05.61,1.94.26,2.13-.82l17.06-101.26a3.78,3.78,0,0,0-1.76-3.43L391.78,84.05c-1-.6-1.94-.26-2.12.83L372.59,186.13A3.84,3.84,0,0,0,374.35,189.57Z" transform="translate(-289.22 -82.54)"/><g class="cls-6"><polygon class="cls-7" points="102.11 3.39 238.07 81.85 220.9 183.36 85.03 104.95 102.11 3.39"/></g><path class="cls-8" d="M289.29,237.5l7.38,3.86,74.05-42.75a5.36,5.36,0,0,1,4.84.2l127.71,73.74c1.23-.69,6.8-3.37,6.8-3.37l-2.7,4.4h0a1.71,1.71,0,0,1-.76.84l-78,45a5.34,5.34,0,0,1-4.83-.2l-130.7-75.45a2.33,2.33,0,0,1-1.1-1.17h0Z" transform="translate(-289.22 -82.54)"/><path class="cls-9" d="M290.43,238.72l133.94,77.33a5.52,5.52,0,0,0,5,.21l79.93-46.15c1.27-.73,1.11-2-.36-2.86L375,189.92a5.52,5.52,0,0,0-5-.21l-79.93,46.15C288.8,236.59,289,237.87,290.43,238.72Z" transform="translate(-289.22 -82.54)"/><path class="cls-10" d="M290.43,238.12l133.94,77.33a5.52,5.52,0,0,0,5,.21l79.93-46.15a1.58,1.58,0,0,0,.8-.94,1.36,1.36,0,0,1-.8,1.54l-79.93,46.15a5.52,5.52,0,0,1-5-.21L290.43,238.72c-.95-.55-1.34-1.28-1.16-1.92A2.3,2.3,0,0,0,290.43,238.12Z" transform="translate(-289.22 -82.54)"/><g class="cls-11"><g class="cls-12"><path class="cls-13" d="M374.19,188.92l7.38,3.85L455.62,150a5.34,5.34,0,0,1,4.83.2L588.17,224c1.22-.69,6.8-3.37,6.8-3.37l-2.71,4.4h0a1.64,1.64,0,0,1-.75.84l-78,45a5.36,5.36,0,0,1-4.84-.2L378,195.19a2.33,2.33,0,0,1-1.1-1.17h0Z" transform="translate(-289.22 -82.54)"/><path class="cls-14" d="M375.33,190.13l133.94,77.33a5.52,5.52,0,0,0,5,.21l79.93-46.15c1.27-.73,1.11-2-.36-2.86L459.86,141.33a5.52,5.52,0,0,0-5-.21L375,187.27C373.7,188,373.86,189.28,375.33,190.13Z" transform="translate(-289.22 -82.54)"/><path class="cls-10" d="M593.8,218.66,459.86,141.33a5.82,5.82,0,0,0-3.31-.68,5.64,5.64,0,0,1,2.32.68l133.94,77.33c1.47.85,1.63,2.13.36,2.86l-79.93,46.15a4.14,4.14,0,0,1-1.64.47,4.73,4.73,0,0,0,2.63-.47l79.93-46.15C595.43,220.79,595.27,219.51,593.8,218.66Z" transform="translate(-289.22 -82.54)"/><g class="cls-15"><path class="cls-5" d="M445.49,176.82l-4.3-2.48a1.42,1.42,0,0,0-1.3,0l-4.77,2.79c-.38.22-.4.56-.05.76l4.29,2.48a1.42,1.42,0,0,0,1.3,0l4.77-2.79C445.81,177.35,445.83,177,445.49,176.82Z" transform="translate(-289.22 -82.54)"/><path class="cls-5" d="M452.12,180.64l-4.3-2.47a1.42,1.42,0,0,0-1.3,0L441.75,181c-.37.22-.4.56-.05.76l4.29,2.48a1.45,1.45,0,0,0,1.3,0l4.77-2.79C452.44,181.18,452.46,180.84,452.12,180.64Z" transform="translate(-289.22 -82.54)"/><path class="cls-5" d="M458.75,184.47,454.46,182a1.44,1.44,0,0,0-1.31,0l-4.77,2.79c-.37.22-.4.56-.05.75l4.29,2.48a1.42,1.42,0,0,0,1.3,0l4.77-2.79C459.07,185,459.09,184.67,458.75,184.47Z" transform="translate(-289.22 -82.54)"/><path class="cls-5" d="M453.7,189.57l-4.29-2.48a1.47,1.47,0,0,0-1.31,0l-4,2.35c-.38.21-.4.55-.06.75l4.3,2.48a1.42,1.42,0,0,0,1.3,0l4-2.34C454,190.11,454.05,189.77,453.7,189.57Z" transform="translate(-289.22 -82.54)"/><path class="cls-5" d="M460.33,193.4,456,190.92a1.42,1.42,0,0,0-1.3,0l-4,2.34c-.38.22-.4.56-.06.76l4.3,2.48a1.42,1.42,0,0,0,1.3,0l4-2.34C460.65,193.93,460.68,193.59,460.33,193.4Z" transform="translate(-289.22 -82.54)"/><path class="cls-5" d="M467,197.22l-4.29-2.47a1.42,1.42,0,0,0-1.3,0l-4,2.34c-.37.22-.4.56-.05.76l4.29,2.48a1.42,1.42,0,0,0,1.3,0l4-2.34C467.28,197.76,467.31,197.42,467,197.22Z" transform="translate(-289.22 -82.54)"/><path class="cls-5" d="M473.59,201.05l-4.29-2.48a1.42,1.42,0,0,0-1.3,0L464,201c-.37.22-.4.56-.05.76l4.29,2.48a1.45,1.45,0,0,0,1.3,0l4-2.34C473.91,201.59,473.94,201.25,473.59,201.05Z" transform="translate(-289.22 -82.54)"/><path class="cls-5" d="M480.22,204.88l-4.29-2.48a1.42,1.42,0,0,0-1.3,0l-4,2.34c-.37.22-.4.56-.05.75l4.29,2.48a1.42,1.42,0,0,0,1.3,0l4-2.34C480.54,205.42,480.57,205.08,480.22,204.88Z" transform="translate(-289.22 -82.54)"/><path class="cls-5" d="M486.85,208.71l-4.29-2.48a1.42,1.42,0,0,0-1.3,0l-4,2.34c-.37.21-.4.55-.05.75l4.29,2.48a1.45,1.45,0,0,0,1.3,0l4-2.34C487.17,209.25,487.2,208.91,486.85,208.71Z" transform="translate(-289.22 -82.54)"/><path class="cls-5" d="M493.48,212.54l-4.29-2.48a1.42,1.42,0,0,0-1.3,0l-4,2.34c-.37.22-.4.56-.05.76l4.29,2.48a1.42,1.42,0,0,0,1.3,0l4-2.34C493.8,213.07,493.83,212.74,493.48,212.54Z" transform="translate(-289.22 -82.54)"/><path class="cls-5" d="M500.11,216.36l-4.29-2.47a1.42,1.42,0,0,0-1.3,0l-4,2.34c-.37.22-.4.56-.05.76l4.29,2.48a1.42,1.42,0,0,0,1.3,0l4-2.34C500.44,216.9,500.46,216.56,500.11,216.36Z" transform="translate(-289.22 -82.54)"/><path class="cls-5" d="M506.75,220.19l-4.3-2.48a1.42,1.42,0,0,0-1.3,0l-4,2.34c-.37.22-.4.56-.05.76l4.29,2.48a1.44,1.44,0,0,0,1.31,0l4-2.34C507.07,220.73,507.09,220.39,506.75,220.19Z" transform="translate(-289.22 -82.54)"/><path class="cls-5" d="M513.38,224l-4.3-2.48a1.42,1.42,0,0,0-1.3,0l-4,2.34c-.37.22-.4.56,0,.76l4.29,2.47a1.44,1.44,0,0,0,1.31,0l4-2.34C513.7,224.56,513.72,224.22,513.38,224Z" transform="translate(-289.22 -82.54)"/><path class="cls-5" d="M450.94,195l-4.29-2.48a1.44,1.44,0,0,0-1.31,0l-4,2.34c-.38.22-.4.56-.06.76l4.3,2.48a1.46,1.46,0,0,0,1.3,0l4-2.34C451.26,195.57,451.28,195.23,450.94,195Z" transform="translate(-289.22 -82.54)"/><path class="cls-5" d="M444.21,191.15l-4.29-2.48a1.47,1.47,0,0,0-1.31,0l-4,2.34c-.38.22-.4.56-.06.76l4.3,2.48a1.42,1.42,0,0,0,1.3,0l4-2.34C444.53,191.69,444.55,191.35,444.21,191.15Z" transform="translate(-289.22 -82.54)"/><path class="cls-5" d="M437.47,187.26l-9.25-5.34a1.42,1.42,0,0,0-1.3,0l-4,2.34c-.37.22-.4.56-.05.76l9.25,5.34a1.42,1.42,0,0,0,1.3,0l4-2.34C437.79,187.79,437.81,187.45,437.47,187.26Z" transform="translate(-289.22 -82.54)"/><path class="cls-5" d="M429.65,189.8l-7.51-4.33a1.42,1.42,0,0,0-1.3,0l-4,2.34c-.38.22-.4.56-.06.76l7.51,4.33a1.42,1.42,0,0,0,1.3,0l4-2.34C430,190.34,430,190,429.65,189.8Z" transform="translate(-289.22 -82.54)"/><path class="cls-5" d="M457.57,198.86l-4.29-2.48a1.44,1.44,0,0,0-1.31,0l-4,2.34c-.38.22-.4.56-.06.75l4.3,2.48a1.42,1.42,0,0,0,1.3,0l4-2.34C457.89,199.4,457.91,199.06,457.57,198.86Z" transform="translate(-289.22 -82.54)"/><path class="cls-5" d="M464.2,202.69l-4.29-2.48a1.44,1.44,0,0,0-1.31,0l-4,2.34c-.38.22-.4.55-.06.75l4.3,2.48a1.45,1.45,0,0,0,1.3,0l4-2.34C464.52,203.23,464.54,202.89,464.2,202.69Z" transform="translate(-289.22 -82.54)"/><path class="cls-5" d="M470.83,206.52,466.54,204a1.47,1.47,0,0,0-1.31,0l-4,2.34c-.38.22-.4.56-.06.76l4.3,2.48a1.42,1.42,0,0,0,1.3,0l4-2.34C471.15,207.05,471.18,206.72,470.83,206.52Z" transform="translate(-289.22 -82.54)"/><path class="cls-5" d="M477.46,210.34l-4.29-2.47a1.44,1.44,0,0,0-1.31,0l-4,2.34c-.38.22-.4.56-.06.76l4.3,2.48a1.42,1.42,0,0,0,1.3,0l4-2.34C477.78,210.88,477.81,210.54,477.46,210.34Z" transform="translate(-289.22 -82.54)"/><path class="cls-5" d="M484.09,214.17l-4.29-2.48a1.45,1.45,0,0,0-1.3,0l-4,2.34c-.38.22-.4.56-.06.76l4.3,2.48a1.42,1.42,0,0,0,1.3,0l4-2.34C484.41,214.71,484.44,214.37,484.09,214.17Z" transform="translate(-289.22 -82.54)"/><path class="cls-5" d="M490.72,218l-4.29-2.48a1.42,1.42,0,0,0-1.3,0l-4,2.34c-.37.22-.4.56-.05.76l4.29,2.47a1.42,1.42,0,0,0,1.3,0l4-2.34C491,218.54,491.07,218.2,490.72,218Z" transform="translate(-289.22 -82.54)"/><path class="cls-5" d="M497.35,221.83l-4.29-2.48a1.42,1.42,0,0,0-1.3,0l-4,2.34c-.37.22-.4.55-.05.75L492,225a1.42,1.42,0,0,0,1.3,0l4-2.34C497.67,222.37,497.7,222,497.35,221.83Z" transform="translate(-289.22 -82.54)"/><path class="cls-5" d="M504,225.66l-4.29-2.48a1.45,1.45,0,0,0-1.3,0l-4,2.35c-.37.21-.4.55-.05.75l4.29,2.48a1.42,1.42,0,0,0,1.3,0l4-2.34C504.3,226.2,504.33,225.86,504,225.66Z" transform="translate(-289.22 -82.54)"/><path class="cls-5" d="M510.61,229.49,506.32,227a1.42,1.42,0,0,0-1.3,0l-4,2.34c-.37.22-.4.56-.05.76l4.29,2.48a1.42,1.42,0,0,0,1.3,0l4-2.34C510.93,230,511,229.68,510.61,229.49Z" transform="translate(-289.22 -82.54)"/><path class="cls-5" d="M522.4,236.29,513,230.88a1.42,1.42,0,0,0-1.3,0l-4,2.34c-.37.22-.39.56-.05.76l9.37,5.4a1.42,1.42,0,0,0,1.3,0l4-2.34C522.72,236.83,522.75,236.49,522.4,236.29Z" transform="translate(-289.22 -82.54)"/><path class="cls-5" d="M510.25,243.39l-7.91-4.56a1.42,1.42,0,0,0-1.3,0l-4,2.34c-.37.22-.4.56,0,.76l7.9,4.57a1.48,1.48,0,0,0,1.31,0l4-2.34C510.57,243.93,510.59,243.59,510.25,243.39Z" transform="translate(-289.22 -82.54)"/><path class="cls-5" d="M456.65,205.39l-4.29-2.48a1.44,1.44,0,0,0-1.31,0l-4,2.34c-.38.22-.4.55-.06.75l4.3,2.48a1.45,1.45,0,0,0,1.3,0l4-2.34C457,205.93,457,205.59,456.65,205.39Z" transform="translate(-289.22 -82.54)"/><path class="cls-5" d="M449.85,201.47,445.56,199a1.42,1.42,0,0,0-1.3,0l-4,2.34c-.37.22-.4.56-.05.76l4.29,2.48a1.42,1.42,0,0,0,1.3,0l4-2.34C450.17,202,450.2,201.66,449.85,201.47Z" transform="translate(-289.22 -82.54)"/><path class="cls-5" d="M443.06,197.54l-4.3-2.48a1.42,1.42,0,0,0-1.3,0l-4,2.34c-.38.22-.4.56-.06.76l4.29,2.48a1.48,1.48,0,0,0,1.31,0l4-2.34C443.38,198.08,443.4,197.74,443.06,197.54Z" transform="translate(-289.22 -82.54)"/><path class="cls-5" d="M436.26,193.62,432,191.14a1.42,1.42,0,0,0-1.3,0l-4,2.34c-.37.22-.4.55-.05.75l4.29,2.48a1.45,1.45,0,0,0,1.3,0l4-2.34C436.58,194.16,436.61,193.82,436.26,193.62Z" transform="translate(-289.22 -82.54)"/><path class="cls-5" d="M463.28,209.22,459,206.74a1.47,1.47,0,0,0-1.31,0l-4,2.34c-.38.22-.4.56-.06.76l4.3,2.48a1.42,1.42,0,0,0,1.3,0l4-2.34C463.6,209.75,463.62,209.42,463.28,209.22Z" transform="translate(-289.22 -82.54)"/><path class="cls-5" d="M469.91,213l-4.29-2.47a1.44,1.44,0,0,0-1.31,0l-4,2.34c-.38.22-.4.56-.06.76l4.3,2.48a1.42,1.42,0,0,0,1.3,0l4-2.34C470.23,213.58,470.25,213.24,469.91,213Z" transform="translate(-289.22 -82.54)"/><path class="cls-5" d="M476.54,216.87l-4.29-2.48a1.48,1.48,0,0,0-1.31,0l-4,2.34c-.38.22-.4.56-.06.76l4.3,2.48a1.42,1.42,0,0,0,1.3,0l4-2.34C476.86,217.41,476.89,217.07,476.54,216.87Z" transform="translate(-289.22 -82.54)"/><path class="cls-5" d="M483.17,220.7l-4.29-2.48a1.44,1.44,0,0,0-1.31,0l-4,2.34c-.38.22-.4.56-.06.76l4.3,2.47a1.42,1.42,0,0,0,1.3,0l4-2.34C483.49,221.24,483.52,220.9,483.17,220.7Z" transform="translate(-289.22 -82.54)"/><path class="cls-5" d="M489.8,224.53l-4.29-2.48a1.42,1.42,0,0,0-1.3,0l-4,2.34c-.38.22-.4.55-.05.75l4.29,2.48a1.42,1.42,0,0,0,1.3,0l4-2.34C490.12,225.07,490.15,224.73,489.8,224.53Z" transform="translate(-289.22 -82.54)"/><path class="cls-5" d="M496.43,228.36l-4.29-2.48a1.45,1.45,0,0,0-1.3,0l-4,2.34c-.37.22-.4.56-.05.76l4.29,2.48a1.42,1.42,0,0,0,1.3,0l4-2.34C496.75,228.9,496.78,228.56,496.43,228.36Z" transform="translate(-289.22 -82.54)"/><path class="cls-5" d="M503.06,232.19l-4.29-2.48a1.42,1.42,0,0,0-1.3,0l-4,2.34c-.37.22-.4.56,0,.76l4.29,2.48a1.42,1.42,0,0,0,1.3,0l4-2.34C503.38,232.72,503.41,232.38,503.06,232.19Z" transform="translate(-289.22 -82.54)"/><path class="cls-5" d="M509.69,236l-4.29-2.48a1.45,1.45,0,0,0-1.3,0l-4,2.34c-.37.22-.4.56,0,.76l4.29,2.48a1.42,1.42,0,0,0,1.3,0l4-2.34C510,236.55,510,236.21,509.69,236Z" transform="translate(-289.22 -82.54)"/><path class="cls-5" d="M516.32,239.84,512,237.36a1.42,1.42,0,0,0-1.3,0l-4,2.34c-.37.22-.4.56-.05.76L511,243a1.45,1.45,0,0,0,1.3,0l4-2.34C516.64,240.38,516.67,240,516.32,239.84Z" transform="translate(-289.22 -82.54)"/><path class="cls-5" d="M440.63,203.2l-4.3-2.48a1.45,1.45,0,0,0-1.3,0l-4,2.34c-.37.22-.4.56,0,.76l4.29,2.48a1.44,1.44,0,0,0,1.31,0l4-2.34C441,203.73,441,203.4,440.63,203.2Z" transform="translate(-289.22 -82.54)"/><path class="cls-5" d="M434,199.39l-4.3-2.48a1.42,1.42,0,0,0-1.3,0l-4,2.34c-.38.21-.4.55-.06.75l4.3,2.48a1.45,1.45,0,0,0,1.3,0l4-2.35C434.35,199.93,434.37,199.59,434,199.39Z" transform="translate(-289.22 -82.54)"/><path class="cls-5" d="M427.43,195.58l-4.29-2.48a1.44,1.44,0,0,0-1.31,0l-4,2.34c-.38.22-.4.55-.06.75l4.3,2.48a1.45,1.45,0,0,0,1.3,0l4-2.34C427.75,196.12,427.78,195.78,427.43,195.58Z" transform="translate(-289.22 -82.54)"/><path class="cls-5" d="M420.83,191.77l-4.29-2.48a1.42,1.42,0,0,0-1.3,0l-4,2.34c-.37.22-.4.56-.05.75l4.29,2.48a1.42,1.42,0,0,0,1.3,0l4-2.34C421.15,192.31,421.18,192,420.83,191.77Z" transform="translate(-289.22 -82.54)"/><path class="cls-5" d="M414.45,195.5l-4.3-2.48a1.42,1.42,0,0,0-1.3,0l-1.33.77c-.37.22-.39.56,0,.76l4.29,2.48a1.44,1.44,0,0,0,1.31,0l1.32-.77C414.77,196,414.79,195.7,414.45,195.5Z" transform="translate(-289.22 -82.54)"/><path class="cls-5" d="M423.05,200.47,418.76,198a1.42,1.42,0,0,0-1.3,0l-1.33.77c-.37.22-.39.56-.05.76l4.29,2.48a1.44,1.44,0,0,0,1.31,0l1.32-.77C423.38,201,423.4,200.67,423.05,200.47Z" transform="translate(-289.22 -82.54)"/><path class="cls-5" d="M429.62,204.27l-4.29-2.48a1.42,1.42,0,0,0-1.3,0l-1.33.78c-.37.22-.39.55-.05.75l4.29,2.48a1.44,1.44,0,0,0,1.31,0l1.32-.78C430,204.8,430,204.47,429.62,204.27Z" transform="translate(-289.22 -82.54)"/><path class="cls-5" d="M436.19,208.06l-4.29-2.48a1.42,1.42,0,0,0-1.3,0l-1.33.77c-.37.22-.39.56,0,.76l4.29,2.48a1.48,1.48,0,0,0,1.31,0l1.32-.77C436.52,208.6,436.54,208.26,436.19,208.06Z" transform="translate(-289.22 -82.54)"/><path class="cls-5" d="M442.77,211.85l-4.3-2.48a1.42,1.42,0,0,0-1.3,0l-1.33.77c-.37.22-.39.56,0,.76l4.29,2.48a1.44,1.44,0,0,0,1.31,0l1.32-.77C443.09,212.39,443.11,212.05,442.77,211.85Z" transform="translate(-289.22 -82.54)"/><path class="cls-5" d="M479.44,233l-4.29-2.48a1.42,1.42,0,0,0-1.3,0l-1.33.77c-.37.22-.4.56,0,.76l4.29,2.48a1.44,1.44,0,0,0,1.31,0l1.32-.77C479.76,233.57,479.79,233.23,479.44,233Z" transform="translate(-289.22 -82.54)"/><path class="cls-5" d="M486,236.82l-4.29-2.48a1.42,1.42,0,0,0-1.3,0l-1.33.77c-.37.22-.4.56,0,.76l4.29,2.48a1.44,1.44,0,0,0,1.31,0l1.32-.77C486.33,237.36,486.36,237,486,236.82Z" transform="translate(-289.22 -82.54)"/><path class="cls-5" d="M492.58,240.62l-4.29-2.48a1.42,1.42,0,0,0-1.3,0l-1.33.78c-.37.22-.4.55-.05.75l4.29,2.48a1.44,1.44,0,0,0,1.31,0l1.32-.78C492.91,241.15,492.93,240.81,492.58,240.62Z" transform="translate(-289.22 -82.54)"/><path class="cls-5" d="M499.15,244.41l-4.29-2.48a1.42,1.42,0,0,0-1.3,0l-1.33.77c-.37.22-.4.56-.05.76l4.29,2.48a1.48,1.48,0,0,0,1.31,0l1.32-.77C499.48,245,499.5,244.61,499.15,244.41Z" transform="translate(-289.22 -82.54)"/><path class="cls-5" d="M447.26,207l-4.3-2.48a1.42,1.42,0,0,0-1.3,0l-4,2.34c-.37.22-.4.56,0,.76l4.29,2.48a1.44,1.44,0,0,0,1.31,0l4-2.34C447.58,207.56,447.6,207.22,447.26,207Z" transform="translate(-289.22 -82.54)"/><path class="cls-5" d="M453.89,210.85l-4.3-2.48a1.46,1.46,0,0,0-1.3,0l-4,2.34c-.37.22-.39.56,0,.76l4.29,2.48a1.44,1.44,0,0,0,1.31,0l4-2.34C454.21,211.39,454.23,211.05,453.89,210.85Z" transform="translate(-289.22 -82.54)"/><path class="cls-5" d="M460.52,214.68l-4.3-2.48a1.42,1.42,0,0,0-1.3,0l-4,2.34c-.38.22-.4.56-.06.76l4.29,2.47a1.44,1.44,0,0,0,1.31,0l4-2.34C460.84,215.22,460.86,214.88,460.52,214.68Z" transform="translate(-289.22 -82.54)"/><path class="cls-5" d="M467.15,218.51l-4.3-2.48a1.42,1.42,0,0,0-1.3,0l-4,2.34c-.38.22-.4.56-.06.75l4.29,2.48a1.44,1.44,0,0,0,1.31,0l4-2.34C467.47,219.05,467.49,218.71,467.15,218.51Z" transform="translate(-289.22 -82.54)"/><path class="cls-5" d="M473.78,222.34l-4.3-2.48a1.45,1.45,0,0,0-1.3,0l-4,2.35c-.38.21-.4.55-.06.75l4.3,2.48a1.42,1.42,0,0,0,1.3,0l4-2.34C474.1,222.88,474.12,222.54,473.78,222.34Z" transform="translate(-289.22 -82.54)"/><path class="cls-5" d="M480.41,226.17l-4.29-2.48a1.44,1.44,0,0,0-1.31,0l-4,2.34c-.38.22-.4.56-.06.76l4.3,2.48a1.42,1.42,0,0,0,1.3,0l4-2.34C480.73,226.7,480.75,226.36,480.41,226.17Z" transform="translate(-289.22 -82.54)"/><path class="cls-5" d="M487,230l-4.29-2.47a1.44,1.44,0,0,0-1.31,0l-4,2.34c-.38.22-.4.56-.06.76l4.3,2.48a1.42,1.42,0,0,0,1.3,0l4-2.34C487.36,230.53,487.38,230.19,487,230Z" transform="translate(-289.22 -82.54)"/><path class="cls-5" d="M493.67,233.82l-4.29-2.48a1.44,1.44,0,0,0-1.31,0l-4,2.34c-.38.22-.4.56-.06.76l4.3,2.48a1.46,1.46,0,0,0,1.3,0l4-2.34C494,234.36,494,234,493.67,233.82Z" transform="translate(-289.22 -82.54)"/><path class="cls-5" d="M500.3,237.65,496,235.17a1.44,1.44,0,0,0-1.31,0l-4,2.34c-.38.22-.4.56-.06.75l4.3,2.48a1.42,1.42,0,0,0,1.3,0l4-2.34C500.62,238.19,500.65,237.85,500.3,237.65Z" transform="translate(-289.22 -82.54)"/><path class="cls-5" d="M446.94,185.67l-12.64-7.3a1.42,1.42,0,0,0-1.3,0l-4,2.34c-.37.22-.4.56-.05.76l12.64,7.3a1.42,1.42,0,0,0,1.3,0l4-2.34C447.26,186.2,447.29,185.87,446.94,185.67Z" transform="translate(-289.22 -82.54)"/><path class="cls-5" d="M528.4,232.7l-12.64-7.3a1.44,1.44,0,0,0-1.31,0l-4,2.34c-.38.22-.4.56-.06.76l12.65,7.3a1.42,1.42,0,0,0,1.3,0l4-2.34C528.72,233.23,528.75,232.9,528.4,232.7Z" transform="translate(-289.22 -82.54)"/><path class="cls-5" d="M516.1,217.59l-4.29-2.48a1.42,1.42,0,0,0-1.3,0l-4.77,2.79c-.38.22-.4.56-.06.76l4.29,2.48a1.44,1.44,0,0,0,1.31,0l4.77-2.79C516.42,218.12,516.45,217.79,516.1,217.59Z" transform="translate(-289.22 -82.54)"/><path class="cls-5" d="M468,189.79l-6.86-4a1.44,1.44,0,0,0-1.31,0L455,188.65c-.37.21-.4.55-.05.75l6.86,4a1.44,1.44,0,0,0,1.31,0l4.77-2.79C468.27,190.32,468.3,190,468,189.79Z" transform="translate(-289.22 -82.54)"/><path class="cls-5" d="M509.72,213.9l-6.87-4a1.42,1.42,0,0,0-1.3,0l-4.78,2.79c-.37.22-.4.56,0,.75l6.87,4a1.42,1.42,0,0,0,1.3,0l4.77-2.79C510,214.44,510.06,214.1,509.72,213.9Z" transform="translate(-289.22 -82.54)"/><path class="cls-5" d="M477.52,195.31l-6.87-4a1.42,1.42,0,0,0-1.3,0l-4.77,2.79c-.38.22-.4.56-.06.76l6.87,4a1.42,1.42,0,0,0,1.3,0l4.77-2.78C477.84,195.85,477.86,195.51,477.52,195.31Z" transform="translate(-289.22 -82.54)"/><path class="cls-5" d="M464.57,195l29.85,17.24a1.47,1.47,0,0,0,1.31,0l4.86-2.85c.35-.2.33-.54,0-.75L470.7,191.37Z" transform="translate(-289.22 -82.54)"/><path class="cls-5" d="M528.32,228.2,533.1,231a1.19,1.19,0,0,0,1.07,0l2-1.14c.31-.18.33-.46,0-.62l-4.78-2.76a1.16,1.16,0,0,0-1.07,0l-1.95,1.14C528.05,227.76,528,228,528.32,228.2Z" transform="translate(-289.22 -82.54)"/><path class="cls-5" d="M521.63,224.34l4.78,2.76a1.19,1.19,0,0,0,1.07,0l1.95-1.14c.31-.18.33-.46.05-.62l-4.79-2.76a1.14,1.14,0,0,0-1.06,0l-2,1.14C521.37,223.9,521.35,224.17,521.63,224.34Z" transform="translate(-289.22 -82.54)"/><path class="cls-5" d="M515,220.51l4.78,2.76a1.19,1.19,0,0,0,1.07,0l1.95-1.14c.31-.18.33-.46.05-.62l-4.79-2.76a1.17,1.17,0,0,0-1.06,0l-2,1.14C514.74,220.07,514.72,220.35,515,220.51Z" transform="translate(-289.22 -82.54)"/><path class="cls-5" d="M518.18,226.35l4.78,2.76a1.16,1.16,0,0,0,1.07,0l2-1.14c.31-.18.33-.45,0-.62l-4.78-2.76a1.19,1.19,0,0,0-1.07,0l-1.95,1.14C517.92,225.91,517.9,226.19,518.18,226.35Z" transform="translate(-289.22 -82.54)"/></g></g></g><g class="cls-16"><path class="cls-5" d="M352,230.15l-4.25-2.45c-.34-.2-.3-.54.1-.77l5-2.9a1.49,1.49,0,0,1,1.33-.05l4.25,2.45c.34.2.3.54-.1.77l-5,2.9A1.48,1.48,0,0,1,352,230.15Z" transform="translate(-289.22 -82.54)"/><path class="cls-5" d="M358.61,234l-4.25-2.46c-.34-.2-.3-.54.09-.77l5-2.9a1.49,1.49,0,0,1,1.33,0l4.26,2.45c.34.2.29.55-.1.77l-5,2.9A1.49,1.49,0,0,1,358.61,234Z" transform="translate(-289.22 -82.54)"/><path class="cls-5" d="M365.18,237.74l-4.26-2.46c-.34-.19-.29-.54.1-.77l5-2.89a1.46,1.46,0,0,1,1.33-.06l4.25,2.46c.34.19.3.54-.09.76l-5,2.9A1.49,1.49,0,0,1,365.18,237.74Z" transform="translate(-289.22 -82.54)"/><path class="cls-5" d="M374.26,234.61,370,232.15c-.35-.2-.3-.54.09-.77l4.21-2.43a1.51,1.51,0,0,1,1.34-.06l4.25,2.46c.34.2.3.54-.1.77l-4.21,2.43A1.49,1.49,0,0,1,374.26,234.61Z" transform="translate(-289.22 -82.54)"/><path class="cls-5" d="M380.82,238.4l-4.25-2.46c-.34-.19-.3-.54.1-.77l4.21-2.43a1.46,1.46,0,0,1,1.33-.05l4.26,2.45c.34.2.29.54-.1.77l-4.21,2.43A1.51,1.51,0,0,1,380.82,238.4Z" transform="translate(-289.22 -82.54)"/><path class="cls-5" d="M387.39,242.19l-4.25-2.46c-.34-.19-.3-.54.09-.77l4.22-2.43a1.46,1.46,0,0,1,1.33-.05l4.25,2.45c.34.2.3.54-.09.77l-4.22,2.43A1.46,1.46,0,0,1,387.39,242.19Z" transform="translate(-289.22 -82.54)"/><path class="cls-5" d="M394,246l-4.25-2.45c-.35-.2-.3-.55.09-.77l4.21-2.44a1.51,1.51,0,0,1,1.34,0l4.25,2.45c.34.2.3.54-.1.77l-4.21,2.43A1.46,1.46,0,0,1,394,246Z" transform="translate(-289.22 -82.54)"/><path class="cls-5" d="M400.52,249.77l-4.25-2.45c-.34-.2-.3-.55.1-.77l4.21-2.44a1.49,1.49,0,0,1,1.33-.05l4.26,2.45c.34.2.29.55-.1.77l-4.21,2.44A1.51,1.51,0,0,1,400.52,249.77Z" transform="translate(-289.22 -82.54)"/><path class="cls-5" d="M407.09,253.56l-4.25-2.45c-.34-.2-.3-.54.09-.77l4.22-2.43a1.46,1.46,0,0,1,1.33-.06l4.25,2.46c.34.19.3.54-.09.76l-4.22,2.44A1.49,1.49,0,0,1,407.09,253.56Z" transform="translate(-289.22 -82.54)"/><path class="cls-5" d="M413.66,257.35l-4.25-2.45c-.35-.2-.3-.54.09-.77l4.21-2.43a1.48,1.48,0,0,1,1.34-.06l4.25,2.46c.34.19.3.54-.1.77L415,257.3A1.46,1.46,0,0,1,413.66,257.35Z" transform="translate(-289.22 -82.54)"/><path class="cls-5" d="M420.22,261.15,416,258.69c-.34-.2-.3-.54.1-.77l4.21-2.43a1.49,1.49,0,0,1,1.33-.06l4.26,2.46c.34.2.29.54-.1.77l-4.21,2.43A1.51,1.51,0,0,1,420.22,261.15Z" transform="translate(-289.22 -82.54)"/><path class="cls-5" d="M426.79,264.94l-4.25-2.46c-.34-.2-.3-.54.09-.77l4.22-2.43a1.49,1.49,0,0,1,1.33-.06l4.25,2.46c.34.2.3.54-.09.77l-4.22,2.43A1.49,1.49,0,0,1,426.79,264.94Z" transform="translate(-289.22 -82.54)"/><path class="cls-5" d="M433.36,268.73l-4.25-2.46c-.35-.19-.3-.54.09-.77l4.21-2.43a1.48,1.48,0,0,1,1.34-.05l4.25,2.45c.34.2.3.54-.1.77l-4.21,2.43A1.49,1.49,0,0,1,433.36,268.73Z" transform="translate(-289.22 -82.54)"/><path class="cls-5" d="M383.93,232.81l-4.25-2.45c-.34-.2-.3-.55.1-.77l4.21-2.44a1.49,1.49,0,0,1,1.33-.05l4.25,2.45c.35.2.3.55-.09.77l-4.21,2.44A1.51,1.51,0,0,1,383.93,232.81Z" transform="translate(-289.22 -82.54)"/><path class="cls-5" d="M377.27,229,373,226.51c-.34-.2-.3-.54.09-.77l4.22-2.43a1.46,1.46,0,0,1,1.33-.06l4.25,2.46c.34.19.3.54-.1.77l-4.21,2.43A1.46,1.46,0,0,1,377.27,229Z" transform="translate(-289.22 -82.54)"/><path class="cls-5" d="M370.59,225.11l-9.15-5.29c-.35-.19-.3-.54.09-.77l4.21-2.43a1.48,1.48,0,0,1,1.34-.05l9.15,5.28c.35.2.3.54-.09.77l-4.21,2.43A1.48,1.48,0,0,1,370.59,225.11Z" transform="translate(-289.22 -82.54)"/><path class="cls-5" d="M375.26,220.42l-7.43-4.29c-.34-.2-.3-.54.09-.77l4.22-2.43a1.49,1.49,0,0,1,1.33-.06l7.43,4.3c.34.19.3.54-.1.76l-4.21,2.44A1.49,1.49,0,0,1,375.26,220.42Z" transform="translate(-289.22 -82.54)"/><path class="cls-5" d="M390.5,236.6l-4.25-2.45c-.34-.2-.3-.54.09-.77l4.22-2.43a1.46,1.46,0,0,1,1.33-.06l4.25,2.46c.34.19.3.54-.09.76l-4.22,2.44A1.46,1.46,0,0,1,390.5,236.6Z" transform="translate(-289.22 -82.54)"/><path class="cls-5" d="M397.07,240.39l-4.26-2.45c-.34-.2-.29-.54.1-.77l4.21-2.43a1.51,1.51,0,0,1,1.34-.06l4.25,2.46c.34.19.3.54-.1.77l-4.21,2.43A1.46,1.46,0,0,1,397.07,240.39Z" transform="translate(-289.22 -82.54)"/><path class="cls-5" d="M403.63,244.19l-4.25-2.46c-.34-.2-.3-.54.1-.77l4.21-2.43a1.49,1.49,0,0,1,1.33-.06l4.25,2.46c.35.2.3.54-.09.77L405,244.13A1.51,1.51,0,0,1,403.63,244.19Z" transform="translate(-289.22 -82.54)"/><path class="cls-5" d="M410.2,248,406,245.52c-.34-.2-.3-.54.09-.77l4.22-2.43a1.49,1.49,0,0,1,1.33-.06l4.25,2.46c.34.2.3.54-.09.77l-4.22,2.43A1.49,1.49,0,0,1,410.2,248Z" transform="translate(-289.22 -82.54)"/><path class="cls-5" d="M416.77,251.77l-4.26-2.46c-.34-.19-.29-.54.1-.77l4.21-2.43a1.48,1.48,0,0,1,1.34-.05l4.25,2.45c.34.2.3.54-.1.77l-4.21,2.43A1.49,1.49,0,0,1,416.77,251.77Z" transform="translate(-289.22 -82.54)"/><path class="cls-5" d="M423.33,255.56l-4.25-2.46c-.34-.19-.3-.54.1-.77l4.21-2.43a1.46,1.46,0,0,1,1.33-.05L429,252.3c.35.2.3.54-.09.77l-4.21,2.43A1.48,1.48,0,0,1,423.33,255.56Z" transform="translate(-289.22 -82.54)"/><path class="cls-5" d="M429.9,259.35l-4.25-2.45c-.34-.2-.3-.55.09-.77l4.22-2.44a1.49,1.49,0,0,1,1.33-.05l4.25,2.45c.34.2.3.54-.09.77l-4.22,2.43A1.46,1.46,0,0,1,429.9,259.35Z" transform="translate(-289.22 -82.54)"/><path class="cls-5" d="M436.47,263.14l-4.26-2.45c-.34-.2-.29-.55.1-.77l4.21-2.44a1.51,1.51,0,0,1,1.34-.05l4.25,2.45c.34.2.3.55-.1.77l-4.21,2.44A1.49,1.49,0,0,1,436.47,263.14Z" transform="translate(-289.22 -82.54)"/><path class="cls-5" d="M443,266.93l-4.25-2.45c-.34-.2-.3-.54.1-.77l4.21-2.43a1.46,1.46,0,0,1,1.33-.06l4.25,2.46c.35.19.3.54-.09.76l-4.21,2.44A1.51,1.51,0,0,1,443,266.93Z" transform="translate(-289.22 -82.54)"/><path class="cls-5" d="M454.71,273.67l-9.28-5.35c-.34-.2-.3-.55.1-.77l4.21-2.44a1.49,1.49,0,0,1,1.33-.05l9.28,5.36c.34.19.3.54-.1.76L456,273.62A1.49,1.49,0,0,1,454.71,273.67Z" transform="translate(-289.22 -82.54)"/><path class="cls-5" d="M467.49,266.29l-7.83-4.52c-.34-.2-.3-.54.1-.77l4.21-2.43a1.49,1.49,0,0,1,1.33-.06l7.83,4.52c.34.2.3.55-.09.77l-4.22,2.44A1.49,1.49,0,0,1,467.49,266.29Z" transform="translate(-289.22 -82.54)"/><path class="cls-5" d="M402,235.86l-4.25-2.45c-.34-.2-.3-.55.09-.77l4.22-2.44a1.49,1.49,0,0,1,1.33,0l4.25,2.45c.34.2.3.55-.09.77l-4.22,2.44A1.49,1.49,0,0,1,402,235.86Z" transform="translate(-289.22 -82.54)"/><path class="cls-5" d="M395.27,232,391,229.52c-.34-.2-.3-.54.09-.77l4.22-2.43a1.49,1.49,0,0,1,1.33-.06l4.25,2.46c.34.2.3.54-.09.77l-4.22,2.43A1.49,1.49,0,0,1,395.27,232Z" transform="translate(-289.22 -82.54)"/><path class="cls-5" d="M388.54,228.09l-4.25-2.46c-.34-.19-.3-.54.09-.76l4.22-2.44a1.49,1.49,0,0,1,1.33-.05l4.25,2.45c.34.2.3.54-.09.77L389.87,228A1.46,1.46,0,0,1,388.54,228.09Z" transform="translate(-289.22 -82.54)"/><path class="cls-5" d="M381.81,224.2l-4.25-2.45c-.34-.2-.3-.54.09-.77l4.22-2.43a1.49,1.49,0,0,1,1.33-.06l4.25,2.46c.34.19.3.54-.09.77l-4.22,2.43A1.46,1.46,0,0,1,381.81,224.2Z" transform="translate(-289.22 -82.54)"/><path class="cls-5" d="M408.57,239.65l-4.26-2.45c-.34-.2-.29-.54.1-.77l4.21-2.43a1.48,1.48,0,0,1,1.34-.06l4.25,2.46c.34.19.3.54-.1.76l-4.21,2.44A1.49,1.49,0,0,1,408.57,239.65Z" transform="translate(-289.22 -82.54)"/><path class="cls-5" d="M415.13,243.44,410.88,241c-.34-.2-.3-.54.1-.77l4.21-2.43a1.46,1.46,0,0,1,1.33-.06l4.25,2.46c.35.19.3.54-.09.77l-4.21,2.43A1.48,1.48,0,0,1,415.13,243.44Z" transform="translate(-289.22 -82.54)"/><path class="cls-5" d="M421.7,247.23l-4.25-2.45c-.34-.2-.3-.54.09-.77l4.22-2.43a1.49,1.49,0,0,1,1.33-.06l4.25,2.46c.34.19.3.54-.1.77L423,247.18A1.46,1.46,0,0,1,421.7,247.23Z" transform="translate(-289.22 -82.54)"/><path class="cls-5" d="M428.27,251,424,248.57c-.34-.2-.29-.54.1-.77l4.21-2.43a1.51,1.51,0,0,1,1.34-.06l4.25,2.46c.34.2.3.54-.1.77L429.6,251A1.49,1.49,0,0,1,428.27,251Z" transform="translate(-289.22 -82.54)"/><path class="cls-5" d="M434.83,254.82l-4.25-2.46c-.34-.2-.3-.54.1-.77l4.21-2.43a1.46,1.46,0,0,1,1.33,0l4.25,2.45c.35.2.3.54-.09.77l-4.21,2.43A1.51,1.51,0,0,1,434.83,254.82Z" transform="translate(-289.22 -82.54)"/><path class="cls-5" d="M441.4,258.61l-4.25-2.46c-.34-.19-.3-.54.09-.77l4.22-2.43a1.46,1.46,0,0,1,1.33,0l4.25,2.45c.34.2.3.54-.1.77l-4.21,2.43A1.46,1.46,0,0,1,441.4,258.61Z" transform="translate(-289.22 -82.54)"/><path class="cls-5" d="M448,262.4l-4.26-2.46c-.34-.19-.29-.54.1-.76l4.21-2.44a1.49,1.49,0,0,1,1.33-.05l4.26,2.45c.34.2.3.54-.1.77l-4.21,2.43A1.46,1.46,0,0,1,448,262.4Z" transform="translate(-289.22 -82.54)"/><path class="cls-5" d="M454.53,266.19l-4.25-2.45c-.34-.2-.3-.55.1-.77l4.21-2.44a1.49,1.49,0,0,1,1.33,0l4.25,2.45c.35.2.3.55-.09.77l-4.22,2.44A1.49,1.49,0,0,1,454.53,266.19Z" transform="translate(-289.22 -82.54)"/><path class="cls-5" d="M461.1,270l-4.25-2.45c-.34-.2-.3-.54.09-.77l4.22-2.43a1.46,1.46,0,0,1,1.33-.06l4.25,2.46c.34.19.3.54-.1.76l-4.21,2.44A1.49,1.49,0,0,1,461.1,270Z" transform="translate(-289.22 -82.54)"/><path class="cls-5" d="M398.54,226.48,394.29,224c-.34-.2-.3-.54.1-.77l4.21-2.43a1.46,1.46,0,0,1,1.33-.06l4.25,2.46c.34.19.3.54-.09.77l-4.22,2.43A1.46,1.46,0,0,1,398.54,226.48Z" transform="translate(-289.22 -82.54)"/><path class="cls-5" d="M392,222.71l-4.25-2.45c-.35-.2-.3-.55.09-.77l4.21-2.44a1.51,1.51,0,0,1,1.34-.05l4.25,2.45c.34.2.3.55-.1.77l-4.21,2.44A1.49,1.49,0,0,1,392,222.71Z" transform="translate(-289.22 -82.54)"/><path class="cls-5" d="M385.47,218.94l-4.25-2.46c-.34-.19-.3-.54.1-.77l4.21-2.43a1.46,1.46,0,0,1,1.33-.05l4.26,2.45c.34.2.29.54-.1.77l-4.21,2.43A1.48,1.48,0,0,1,385.47,218.94Z" transform="translate(-289.22 -82.54)"/><path class="cls-5" d="M378.94,215.17l-4.25-2.46c-.34-.2-.3-.54.09-.77l4.22-2.43a1.49,1.49,0,0,1,1.33-.06l4.25,2.46c.34.2.3.54-.09.77l-4.22,2.43A1.49,1.49,0,0,1,378.94,215.17Z" transform="translate(-289.22 -82.54)"/><path class="cls-5" d="M385.66,211.29l-4.25-2.46c-.34-.19-.3-.54.09-.77l1.4-.8a1.49,1.49,0,0,1,1.33-.06l4.25,2.46c.34.2.3.54-.1.77l-1.39.8A1.49,1.49,0,0,1,385.66,211.29Z" transform="translate(-289.22 -82.54)"/><path class="cls-5" d="M394.19,216.21l-4.26-2.45c-.34-.2-.29-.55.1-.77l1.39-.81a1.46,1.46,0,0,1,1.33-.05l4.26,2.45c.34.2.3.54-.1.77l-1.39.8A1.46,1.46,0,0,1,394.19,216.21Z" transform="translate(-289.22 -82.54)"/><path class="cls-5" d="M400.69,220l-4.25-2.46c-.34-.2-.3-.54.1-.77l1.39-.8a1.49,1.49,0,0,1,1.33-.06l4.25,2.46c.34.2.3.54-.09.77l-1.4.8A1.49,1.49,0,0,1,400.69,220Z" transform="translate(-289.22 -82.54)"/><path class="cls-5" d="M407.2,223.72,403,221.27c-.34-.2-.3-.54.09-.77l1.4-.8a1.46,1.46,0,0,1,1.33-.06L410,222.1c.34.19.3.54-.1.76l-1.39.81A1.46,1.46,0,0,1,407.2,223.72Z" transform="translate(-289.22 -82.54)"/><path class="cls-5" d="M413.71,227.48,409.45,225c-.34-.2-.29-.55.1-.77l1.39-.81a1.46,1.46,0,0,1,1.33,0l4.26,2.45c.34.2.3.54-.1.77l-1.39.8A1.46,1.46,0,0,1,413.71,227.48Z" transform="translate(-289.22 -82.54)"/><path class="cls-5" d="M450,248.45,445.78,246c-.34-.2-.3-.54.1-.77l1.39-.81a1.49,1.49,0,0,1,1.33,0l4.25,2.45c.34.2.3.55-.09.77l-1.4.81A1.46,1.46,0,0,1,450,248.45Z" transform="translate(-289.22 -82.54)"/><path class="cls-5" d="M456.54,252.21l-4.25-2.46c-.34-.19-.3-.54.09-.76l1.4-.81a1.46,1.46,0,0,1,1.33-.05l4.25,2.45c.34.2.3.54-.1.77l-1.39.8A1.46,1.46,0,0,1,456.54,252.21Z" transform="translate(-289.22 -82.54)"/><path class="cls-5" d="M463.05,256l-4.26-2.46c-.34-.2-.3-.54.1-.77l1.39-.8a1.49,1.49,0,0,1,1.33-.06l4.26,2.46c.34.19.29.54-.1.77l-1.39.8A1.49,1.49,0,0,1,463.05,256Z" transform="translate(-289.22 -82.54)"/><path class="cls-5" d="M469.55,259.72l-4.25-2.45c-.34-.2-.3-.54.1-.77l1.39-.81a1.49,1.49,0,0,1,1.33-.05l4.25,2.45c.34.2.3.55-.09.77l-1.4.81A1.46,1.46,0,0,1,469.55,259.72Z" transform="translate(-289.22 -82.54)"/><path class="cls-5" d="M405.11,230.27l-4.25-2.45c-.34-.2-.3-.54.09-.77l4.22-2.43a1.49,1.49,0,0,1,1.33-.06l4.25,2.46c.34.2.3.54-.1.77l-4.21,2.43A1.46,1.46,0,0,1,405.11,230.27Z" transform="translate(-289.22 -82.54)"/><path class="cls-5" d="M411.68,234.07l-4.26-2.46c-.34-.2-.3-.54.1-.77l4.21-2.43a1.49,1.49,0,0,1,1.33-.06l4.26,2.46c.34.2.29.54-.1.77L413,234A1.49,1.49,0,0,1,411.68,234.07Z" transform="translate(-289.22 -82.54)"/><path class="cls-5" d="M418.24,237.86,414,235.4c-.34-.19-.3-.54.1-.77l4.21-2.43a1.46,1.46,0,0,1,1.33,0l4.25,2.45c.34.2.3.54-.09.77l-4.22,2.43A1.49,1.49,0,0,1,418.24,237.86Z" transform="translate(-289.22 -82.54)"/><path class="cls-5" d="M424.81,241.65l-4.25-2.46c-.34-.19-.3-.54.09-.77l4.22-2.43a1.46,1.46,0,0,1,1.33-.05l4.25,2.45c.34.2.3.54-.1.77l-4.21,2.43A1.46,1.46,0,0,1,424.81,241.65Z" transform="translate(-289.22 -82.54)"/><path class="cls-5" d="M431.38,245.44,427.12,243c-.34-.19-.3-.54.1-.76l4.21-2.44a1.49,1.49,0,0,1,1.33-.05l4.26,2.45c.34.2.29.54-.1.77l-4.21,2.43A1.46,1.46,0,0,1,431.38,245.44Z" transform="translate(-289.22 -82.54)"/><path class="cls-5" d="M437.94,249.23l-4.25-2.45c-.34-.2-.3-.55.1-.77l4.21-2.44a1.49,1.49,0,0,1,1.33,0l4.25,2.45c.34.2.3.55-.09.77l-4.22,2.44A1.49,1.49,0,0,1,437.94,249.23Z" transform="translate(-289.22 -82.54)"/><path class="cls-5" d="M444.51,253l-4.25-2.45c-.35-.2-.3-.54.09-.77l4.22-2.43a1.46,1.46,0,0,1,1.33-.06l4.25,2.46c.34.19.3.54-.1.76L445.84,253A1.49,1.49,0,0,1,444.51,253Z" transform="translate(-289.22 -82.54)"/><path class="cls-5" d="M451.08,256.81l-4.26-2.45c-.34-.2-.3-.54.1-.77l4.21-2.43a1.46,1.46,0,0,1,1.33-.06l4.26,2.46c.34.19.29.54-.1.77l-4.21,2.43A1.46,1.46,0,0,1,451.08,256.81Z" transform="translate(-289.22 -82.54)"/><path class="cls-5" d="M457.64,260.6l-4.25-2.45c-.34-.2-.3-.54.1-.77L457.7,255a1.49,1.49,0,0,1,1.33-.06l4.25,2.46c.34.19.3.54-.09.77L459,260.55A1.46,1.46,0,0,1,457.64,260.6Z" transform="translate(-289.22 -82.54)"/><path class="cls-5" d="M367.57,230.74,355,223.51c-.34-.19-.3-.54.1-.77l4.21-2.43a1.46,1.46,0,0,1,1.33-.05l12.53,7.23c.34.19.3.54-.1.77l-4.21,2.43A1.46,1.46,0,0,1,367.57,230.74Z" transform="translate(-289.22 -82.54)"/><path class="cls-5" d="M448.24,277.32l-12.52-7.23c-.35-.2-.3-.54.09-.77l4.21-2.43a1.48,1.48,0,0,1,1.34-.06l12.52,7.23c.34.2.3.54-.1.77l-4.21,2.43A1.46,1.46,0,0,1,448.24,277.32Z" transform="translate(-289.22 -82.54)"/><path class="cls-5" d="M422,270.53l-4.25-2.45c-.35-.2-.3-.54.09-.77l5-2.9a1.49,1.49,0,0,1,1.33-.06l4.25,2.46c.35.2.3.54-.09.77l-5,2.9A1.49,1.49,0,0,1,422,270.53Z" transform="translate(-289.22 -82.54)"/><path class="cls-5" d="M374.29,243l-6.8-3.93c-.34-.19-.3-.54.1-.77l5-2.89a1.46,1.46,0,0,1,1.33-.06l6.8,3.93c.34.19.3.54-.1.77l-5,2.89A1.46,1.46,0,0,1,374.29,243Z" transform="translate(-289.22 -82.54)"/><path class="cls-5" d="M415.65,266.88l-6.8-3.93c-.34-.19-.3-.54.1-.77l5-2.89a1.46,1.46,0,0,1,1.33-.06l6.8,3.93c.34.19.3.54-.1.77l-5,2.89A1.46,1.46,0,0,1,415.65,266.88Z" transform="translate(-289.22 -82.54)"/><path class="cls-5" d="M383.77,248.47,377,244.54c-.34-.19-.29-.54.1-.77l5-2.89a1.46,1.46,0,0,1,1.33-.06l6.8,3.93c.34.19.3.54-.09.77l-5,2.89A1.46,1.46,0,0,1,383.77,248.47Z" transform="translate(-289.22 -82.54)"/><path class="cls-5" d="M383.46,240.85,413,257.92c.37.21.37.55,0,.77l-5.11,2.95a1.48,1.48,0,0,1-1.33,0L377,244.57Z" transform="translate(-289.22 -82.54)"/><path class="cls-5" d="M440.33,277.41l4.74,2.73c.28.16.24.44-.08.63L442.94,282a1.26,1.26,0,0,1-1.1,0l-4.73-2.73c-.28-.16-.25-.45.08-.63l2.05-1.19A1.17,1.17,0,0,1,440.33,277.41Z" transform="translate(-289.22 -82.54)"/><path class="cls-5" d="M433.71,273.58l4.74,2.74c.28.16.24.44-.08.63l-2.06,1.18a1.2,1.2,0,0,1-1.09.05l-4.73-2.74c-.28-.16-.25-.44.07-.63l2.06-1.18A1.2,1.2,0,0,1,433.71,273.58Z" transform="translate(-289.22 -82.54)"/><path class="cls-5" d="M427.14,269.79l4.74,2.74c.28.16.24.44-.08.63l-2.05,1.18a1.21,1.21,0,0,1-1.09.05l-4.74-2.74c-.28-.16-.25-.44.08-.63l2.05-1.18A1.2,1.2,0,0,1,427.14,269.79Z" transform="translate(-289.22 -82.54)"/><path class="cls-5" d="M437.34,271.49l4.73,2.73c.28.17.25.45-.08.63L439.94,276a1.17,1.17,0,0,1-1.09,0l-4.74-2.73c-.28-.16-.24-.44.08-.63l2.05-1.19A1.26,1.26,0,0,1,437.34,271.49Z" transform="translate(-289.22 -82.54)"/></g><path class="cls-17" d="M504.33,169.32a2,2,0,0,1-1-.28,2.9,2.9,0,0,1-1.39-2.93,1.45,1.45,0,0,1,.83-1.06,1.8,1.8,0,0,1,1.58.16,3,3,0,0,1,1.39,2.94,1.46,1.46,0,0,1-.84,1A1.43,1.43,0,0,1,504.33,169.32Zm-1-3.93a.94.94,0,0,0-.41.08,1,1,0,0,0-.57.74,2.43,2.43,0,0,0,1.18,2.43,1.3,1.3,0,0,0,1.16.15,1,1,0,0,0,.57-.75,2.42,2.42,0,0,0-1.17-2.43A1.53,1.53,0,0,0,503.37,165.39Z" transform="translate(-289.22 -82.54)"/><path class="cls-17" d="M509.74,172.45a2,2,0,0,1-1-.29,2.91,2.91,0,0,1-1.39-2.93,1.48,1.48,0,0,1,.84-1.06,1.75,1.75,0,0,1,1.57.17,2.9,2.9,0,0,1,1.39,2.93,1.47,1.47,0,0,1-.83,1.06A1.45,1.45,0,0,1,509.74,172.45Zm-1-3.94a1.06,1.06,0,0,0-.4.08,1,1,0,0,0-.57.75,2.4,2.4,0,0,0,1.17,2.43,1.32,1.32,0,0,0,1.17.14,1.05,1.05,0,0,0,.57-.74,2.41,2.41,0,0,0-1.18-2.43A1.52,1.52,0,0,0,508.78,168.51Z" transform="translate(-289.22 -82.54)"/><path class="cls-17" d="M516.35,174.35a1.29,1.29,0,0,1-2.07.74,2.64,2.64,0,0,1-1.28-2.68,1.3,1.3,0,0,1,2.07-.75A2.66,2.66,0,0,1,516.35,174.35Z" transform="translate(-289.22 -82.54)"/><polygon class="cls-17" points="123.32 32.06 120.42 30.39 120.65 29.05 123.54 30.72 123.32 32.06"/><polygon class="cls-17" points="127.53 34.49 124.63 32.82 124.86 31.48 127.75 33.15 127.53 34.49"/><polygon class="cls-17" points="119.15 29.66 112.8 25.99 113.03 24.65 119.38 28.32 119.15 29.66"/><polygon class="cls-17" points="119.95 54.92 115.11 52.12 115.3 51 120.14 53.8 119.95 54.92"/><polygon class="cls-17" points="124.09 57.31 121.67 55.91 121.85 54.79 124.28 56.19 124.09 57.31"/><polygon class="cls-17" points="120.94 58.37 118.88 57.18 119.07 56.06 121.13 57.25 120.94 58.37"/><polygon class="cls-17" points="124.4 60.37 121.98 58.97 122.17 57.85 124.59 59.25 124.4 60.37"/><polygon class="cls-17" points="127.96 65.31 118.44 59.81 118.63 58.69 128.15 64.19 127.96 65.31"/><polygon class="cls-17" points="119.71 87.3 110.18 81.8 110.37 80.68 119.89 86.18 119.71 87.3"/><polygon class="cls-17" points="123.37 89.41 120.94 88.01 121.13 86.89 123.56 88.29 123.37 89.41"/><polygon class="cls-17" points="120.06 63.63 118 62.43 118.19 61.31 120.25 62.51 120.06 63.63"/><polygon class="cls-17" points="123.52 65.62 121.1 64.22 121.29 63.1 123.71 64.5 123.52 65.62"/><polygon class="cls-17" points="122.79 68.08 117.56 65.06 117.75 63.94 122.98 66.96 122.79 68.08"/><polygon class="cls-17" points="126.3 70.11 123.87 68.71 124.06 67.59 126.48 68.99 126.3 70.11"/><polygon class="cls-17" points="129.82 72.14 127.4 70.74 127.58 69.62 130.01 71.02 129.82 72.14"/><polygon class="cls-17" points="135.5 75.42 130.92 72.78 131.11 71.66 135.69 74.3 135.5 75.42"/><polygon class="cls-17" points="131.88 79.09 129.45 77.69 129.64 76.57 132.06 77.97 131.88 79.09"/><polygon class="cls-17" points="137.56 82.37 132.97 79.72 133.16 78.6 137.75 81.25 137.56 82.37"/><polygon class="cls-17" points="119.1 71.71 116.68 70.31 116.86 69.19 119.29 70.59 119.1 71.71"/><polygon class="cls-17" points="122.62 73.75 120.2 72.35 120.39 71.23 122.81 72.63 122.62 73.75"/><polygon class="cls-17" points="128.31 77.03 123.72 74.38 123.91 73.26 128.5 75.91 128.31 77.03"/><polygon class="cls-17" points="135.76 78.45 133.33 77.05 133.52 75.93 135.94 77.33 135.76 78.45"/><polygon class="cls-17" points="139.28 80.48 136.85 79.08 137.04 77.96 139.47 79.36 139.28 80.48"/><polygon class="cls-17" points="144.96 83.77 140.38 81.12 140.57 80 145.15 82.64 144.96 83.77"/><polygon class="cls-17" points="127.16 91.6 124.74 90.2 124.92 89.08 127.35 90.48 127.16 91.6"/><polygon class="cls-17" points="132.84 94.88 128.26 92.23 128.45 91.11 133.03 93.76 132.84 94.88"/><polygon class="cls-17" points="118.22 76.97 115.8 75.57 115.98 74.45 118.41 75.85 118.22 76.97"/><polygon class="cls-17" points="123.9 80.25 119.32 77.6 119.5 76.48 124.09 79.13 123.9 80.25"/><polygon class="cls-17" points="129.8 96 127.38 94.61 127.56 93.48 129.99 94.88 129.8 96"/><polygon class="cls-17" points="135.48 99.29 130.9 96.64 131.09 95.52 135.67 98.17 135.48 99.29"/><polygon class="cls-17" points="135.21 69.49 132.78 68.09 132.97 66.97 135.39 68.37 135.21 69.49"/><polygon class="cls-17" points="131.54 67.37 129.12 65.97 129.31 64.85 131.73 66.25 131.54 67.37"/><polygon class="cls-17" points="140.89 72.77 136.3 70.12 136.49 69 141.08 71.65 140.89 72.77"/><polygon class="cls-17" points="119.3 68.95 117.12 67.69 117.3 66.57 119.49 67.83 119.3 68.95"/><polygon class="cls-17" points="125.79 72.69 120.47 69.63 120.66 68.5 125.97 71.57 125.79 72.69"/><polygon class="cls-17" points="132.27 76.44 126.95 73.37 127.14 72.25 132.46 75.32 132.27 76.44"/><polygon class="cls-17" points="144.26 74.71 142.07 73.45 142.26 72.33 144.45 73.59 144.26 74.71"/><polygon class="cls-17" points="150.74 78.46 145.43 75.39 145.62 74.27 150.93 77.34 150.74 78.46"/><polygon class="cls-17" points="157.22 82.2 151.91 79.13 152.1 78.01 157.41 81.08 157.22 82.2"/><polygon class="cls-17" points="121.6 76.04 116.28 72.97 116.47 71.85 121.78 74.92 121.6 76.04"/><polygon class="cls-17" points="124.4 77.65 122.77 76.71 122.95 75.59 124.59 76.53 124.4 77.65"/><polygon class="cls-17" points="127.21 79.28 125.57 78.33 125.76 77.21 127.39 78.16 127.21 79.28"/><polygon class="cls-17" points="132.4 82.27 128.38 79.95 128.57 78.83 132.58 81.15 132.4 82.27"/><polygon class="cls-17" points="138.21 76.99 136.58 76.05 136.77 74.92 138.4 75.87 138.21 76.99"/><polygon class="cls-17" points="143.41 79.98 139.39 77.67 139.58 76.55 143.59 78.86 143.41 79.98"/><polygon class="cls-17" points="144.5 80.61 140.48 78.3 140.67 77.18 144.68 79.49 144.5 80.61"/><polygon class="cls-17" points="123.12 95.03 117.88 92.01 118.07 90.89 123.31 93.91 123.12 95.03"/><polygon class="cls-17" points="126.62 97.05 124.2 95.65 124.39 94.53 126.81 95.93 126.62 97.05"/><polygon class="cls-17" points="130.15 99.09 127.72 97.69 127.91 96.57 130.33 97.97 130.15 99.09"/><polygon class="cls-17" points="135.83 102.37 131.25 99.72 131.43 98.6 136.02 101.25 135.83 102.37"/><polygon class="cls-17" points="139.47 104.47 137.04 103.07 137.23 101.95 139.66 103.35 139.47 104.47"/><polygon class="cls-17" points="145.15 107.75 140.57 105.1 140.75 103.98 145.34 106.63 145.15 107.75"/><polygon class="cls-17" points="127.71 103.44 125.29 102.04 125.48 100.92 127.9 102.32 127.71 103.44"/><polygon class="cls-17" points="133.4 106.73 128.81 104.08 129 102.96 133.59 105.61 133.4 106.73"/><polygon class="cls-17" points="115.06 96.14 112.63 94.74 112.82 93.62 115.24 95.02 115.06 96.14"/><polygon class="cls-17" points="118.58 98.17 116.16 96.77 116.34 95.65 118.77 97.05 118.58 98.17"/><polygon class="cls-17" points="124.26 101.45 119.68 98.8 119.87 97.68 124.45 100.33 124.26 101.45"/><polygon class="cls-17" points="119.63 95.89 117.44 94.63 117.63 93.51 119.82 94.78 119.63 95.89"/><polygon class="cls-17" points="126.11 99.64 120.8 96.57 120.99 95.45 126.3 98.52 126.11 99.64"/><polygon class="cls-17" points="132.6 103.38 127.28 100.31 127.47 99.19 132.78 102.26 132.6 103.38"/><polygon class="cls-17" points="113.27 97.98 107.95 94.92 108.14 93.8 113.45 96.86 113.27 97.98"/><polygon class="cls-17" points="116.07 99.6 114.44 98.66 114.62 97.54 116.26 98.48 116.07 99.6"/><polygon class="cls-17" points="118.88 101.22 117.24 100.28 117.43 99.16 119.06 100.1 118.88 101.22"/><polygon class="cls-17" points="124.07 104.22 120.05 101.9 120.24 100.78 124.25 103.1 124.07 104.22"/><polygon class="cls-17" points="125.16 104.85 121.14 102.53 121.33 101.41 125.34 103.73 125.16 104.85"/><polygon class="cls-17" points="115.66 87.84 114.03 86.9 114.22 85.78 115.85 86.72 115.66 87.84"/><polygon class="cls-17" points="120.85 90.84 116.84 88.52 117.02 87.4 121.04 89.72 120.85 90.84"/><polygon class="cls-17" points="126.15 93.9 122.14 91.58 122.33 90.46 126.34 92.78 126.15 93.9"/><polygon class="cls-17" points="146.59 111.46 144.17 110.06 144.35 108.94 146.78 110.34 146.59 111.46"/><polygon class="cls-17" points="152.27 114.74 147.69 112.09 147.88 110.97 152.46 113.62 152.27 114.74"/><polygon class="cls-17" points="137.64 106.3 133.63 103.98 133.81 102.86 137.83 105.17 137.64 106.3"/><polygon class="cls-17" points="142.94 109.36 138.93 107.04 139.12 105.92 143.13 108.24 142.94 109.36"/><polygon class="cls-17" points="112.82 76.73 111.19 75.79 111.38 74.67 113.01 75.61 112.82 76.73"/><polygon class="cls-17" points="118.01 79.73 114 77.41 114.19 76.29 118.2 78.61 118.01 79.73"/><polygon class="cls-17" points="123.31 82.79 119.3 80.47 119.49 79.35 123.5 81.67 123.31 82.79"/><path class="cls-17" d="M492.65,206.17a2.19,2.19,0,0,1-1.12-.33l-32.46-18.73a4.47,4.47,0,0,1-1.91-4.32l2.08-12.38a2.29,2.29,0,0,1,1.19-1.78,2,2,0,0,1,1.87.16l32.46,18.73a4.47,4.47,0,0,1,1.91,4.32l-2.08,12.38A2.29,2.29,0,0,1,493.4,206,1.75,1.75,0,0,1,492.65,206.17Zm-31.47-37.25a1.31,1.31,0,0,0-.56.12,1.84,1.84,0,0,0-.93,1.45l-2.08,12.38a4,4,0,0,0,1.69,3.84l32.45,18.74a1.58,1.58,0,0,0,1.46.14,1.84,1.84,0,0,0,.93-1.45l2.08-12.38a4,4,0,0,0-1.69-3.84l-32.45-18.74A1.88,1.88,0,0,0,461.18,168.92Z" transform="translate(-289.22 -82.54)"/><path class="cls-17" d="M489.08,227.45a2.19,2.19,0,0,1-1.12-.33L455.5,208.39a4.47,4.47,0,0,1-1.91-4.32l2.08-12.38a2.29,2.29,0,0,1,1.19-1.78,2,2,0,0,1,1.88.16l32.45,18.73a4.47,4.47,0,0,1,1.91,4.32L491,225.5a2.29,2.29,0,0,1-1.19,1.78A1.75,1.75,0,0,1,489.08,227.45Zm-.89-.72a1.56,1.56,0,0,0,1.45.14,1.88,1.88,0,0,0,.94-1.45L492.65,213A4,4,0,0,0,491,209.2l-32.45-18.74a1.58,1.58,0,0,0-1.46-.14,1.84,1.84,0,0,0-.93,1.44L454,204.15a4,4,0,0,0,1.69,3.84Z" transform="translate(-289.22 -82.54)"/><path class="cls-18" d="M462,185.77c.57.33,1.08.21,1.27-.31l3.79-10.34c.43-1.18,2.2-.11,2.57,1.56l2.33,10.4a3.08,3.08,0,0,0,1.29,1.87l.56.32c.54.31,1,.22,1.24-.23l.77-1.63c.48-1,2.08-.06,2.51,1.5h0a3,3,0,0,0,1.26,1.73l.49.28c.59.34,1.11.2,1.29-.35l.7-2.15c.4-1.22,2.17-.21,2.57,1.47l2.34,9.63a3,3,0,0,0,1.3,1.84Z" transform="translate(-289.22 -82.54)"/><path class="cls-17" d="M484.16,222.55a3.26,3.26,0,0,1-1.41-2l-2.33-9.63a2.38,2.38,0,0,0-1.66-1.84.47.47,0,0,0-.48.38l-.7,2.16a1,1,0,0,1-.56.63,1.26,1.26,0,0,1-1.06-.16l-.49-.28A3.22,3.22,0,0,1,474.1,210a2.35,2.35,0,0,0-1.6-1.75.45.45,0,0,0-.48.29l-.77,1.63a.88.88,0,0,1-.55.5,1.23,1.23,0,0,1-1-.17l-.56-.32a3.3,3.3,0,0,1-1.4-2l-2.33-10.41a2.39,2.39,0,0,0-1.65-1.88.47.47,0,0,0-.49.35l-3.78,10.35a.92.92,0,0,1-.56.58,1.19,1.19,0,0,1-1-.16l.22-.39a.87.87,0,0,0,.67.13.5.5,0,0,0,.28-.32L462.84,196a.9.9,0,0,1,.94-.65,2.77,2.77,0,0,1,2.06,2.23L468.18,208a2.8,2.8,0,0,0,1.18,1.72l.56.32a.85.85,0,0,0,.64.13.48.48,0,0,0,.28-.26l.77-1.63a.9.9,0,0,1,.93-.55,2.75,2.75,0,0,1,2,2.08,2.82,2.82,0,0,0,1.16,1.6l.49.28a.77.77,0,0,0,.66.12.48.48,0,0,0,.29-.34l.71-2.16a.9.9,0,0,1,.88-.69h0a2.75,2.75,0,0,1,2.09,2.18l2.33,9.64a2.79,2.79,0,0,0,1.2,1.68Z" transform="translate(-289.22 -82.54)"/><path class="cls-17" d="M471.14,158.37a2.84,2.84,0,0,1-1.42-.4l-25.37-14.65a4.51,4.51,0,0,1-2-4.86,2.72,2.72,0,0,1,1.55-1.87,2.58,2.58,0,0,1,2.32.23l25.37,14.65a4.51,4.51,0,0,1,2,4.86A2.72,2.72,0,0,1,472,158.2,2.32,2.32,0,0,1,471.14,158.37Zm-26.3-21.5a2,2,0,0,0-.73.14,2.28,2.28,0,0,0-1.28,1.57,4.07,4.07,0,0,0,1.74,4.35L470,157.58a2.17,2.17,0,0,0,1.92.2,2.3,2.3,0,0,0,1.28-1.57,4.05,4.05,0,0,0-1.74-4.35L446,137.21A2.45,2.45,0,0,0,444.84,136.87Z" transform="translate(-289.22 -82.54)"/></g></g></svg>