<svg width="90" height="51" viewBox="0 0 90 51" fill="none" xmlns="http://www.w3.org/2000/svg">
<path d="M0 11.6993V12.7703V18.252V19.3179L3.21803 20.9877V18.252V12.7703V10.0294L0 11.6993Z" fill="white"/>
<path d="M0 22.6576V23.7286V29.2052V30.4792L3.21803 32.1491V29.2052V23.7286V20.9878L0 22.6576Z" fill="white"/>
<path d="M48.3702 10.0294H46.1051H43.3161H43.3112H40.5222H38.2571H35.5679L38.0226 12.8566H38.307H40.5721H41.6248L43.3112 11.4151L45.0025 12.8566H46.0552H48.3203H48.6047L51.0594 10.0294H48.3702Z" fill="white"/>
<path d="M16.1799 11.6993V12.7703V18.252V19.3179L12.9619 20.9877V18.252V12.7703V10.0294L16.1799 11.6993Z" fill="white"/>
<path d="M16.1799 22.6576V23.7286V29.2407L14.5684 30.5097L12.9619 29.2052V23.7286V20.9878L16.1799 22.6576Z" fill="white"/>
<path d="M24.3572 11.6993V12.7703V18.252V19.3179L27.5753 20.9877V18.252V12.7703V10.0294L24.3572 11.6993Z" fill="white"/>
<path d="M24.3572 22.6576V23.7286V29.2407L25.9638 30.5097L27.5753 29.2052V23.7286V20.9878L24.3572 22.6576Z" fill="white"/>
<path d="M43.3112 21.2162L41.7047 22.4851V24.1296V25.2005V27.9972V29.0682V30.8802L43.3112 32.1491L44.9227 30.8446V29.7077V27.9972V25.2005V23.7794V22.5155L43.3112 21.2162Z" fill="white"/>
<path d="M43.3112 12.2526L41.7047 13.5215V14.2676V17.0643V18.1353V19.9473L43.3112 21.2162L44.9227 19.9117V18.7748V17.0643V14.2676V13.557L43.3112 12.2526Z" fill="white"/>
<path d="M25.365 30.7381L23.519 32.1491H16.9533L15.1073 30.7381L16.6539 29.5402H23.8184L25.365 30.7381Z" fill="white"/>
<path d="M90 7.04499C90 7.04499 86.6273 6.64402 82.8605 9.62849C79.0936 12.613 76.8185 13.0799 75.4814 14.1052C74.1443 15.1305 73.6404 16.1761 73.6404 17.247C73.6404 18.318 74.4487 19.4752 77.2975 20.2112C80.1414 20.9472 81.3687 22.6374 81.3687 23.3073C81.3687 23.9773 79.8121 29.1646 74.299 32.4181C81.0195 30.1442 83.09 28.7484 85.0906 24.6016C86.3629 21.9724 86.8867 18.186 86.8867 18.186C86.8867 18.186 85.4399 18.719 83.2097 18.587C80.9745 18.455 79.398 17.3384 79.5327 15.9578C79.6624 14.5772 81.239 13.552 82.2917 12.75C83.3444 11.9481 84.0878 10.7451 84.8312 10.0345C85.5796 9.31888 87.7249 7.53733 90 7.04499Z" fill="white"/>
<path d="M82.9902 2.89819C82.9403 2.86773 82.8854 2.83728 82.8355 2.80682C82.8704 2.82205 82.9004 2.84235 82.9353 2.86266C82.9503 2.87281 82.9702 2.88296 82.9902 2.89819Z" fill="white"/>
<path d="M85.4898 35.4533C85.4299 35.565 85.36 35.6665 85.2802 35.7579C85.0058 35.971 84.7264 36.1741 84.442 36.372C81.0394 38.7423 76.8684 40.1381 72.3682 40.1381C60.938 40.1381 51.6431 31.134 51.6431 20.0691C51.6431 9.00418 60.9429 0 72.3682 0C76.2099 0 79.8071 1.01513 82.8954 2.7916C82.9054 2.79668 82.9153 2.80175 82.9253 2.80683C82.9752 2.83728 83.0301 2.86773 83.08 2.89819C84.0828 3.52757 84.4271 4.84216 83.8483 5.86236C83.2596 6.89779 81.9424 7.24801 80.8997 6.64908C80.8947 6.64401 80.8897 6.64401 80.8797 6.63893C80.8748 6.63893 80.8698 6.63386 80.8698 6.62878C78.3901 5.19238 75.4765 4.35997 72.3682 4.35997C63.3028 4.35997 55.9288 11.405 55.9288 20.0691C55.9288 28.7332 63.3028 35.7782 72.3682 35.7782C76.0053 35.7782 79.373 34.6412 82.0971 32.7226C82.2418 32.6211 82.3815 32.5196 82.5262 32.413C83.1698 32.0577 83.978 32.0476 84.6665 32.4536C85.7143 33.0678 86.0835 34.4077 85.4898 35.4533Z" fill="#FC0203"/>
<path d="M16.9633 45.1122V49.589H16.4294V45.1122H16.9633Z" fill="white"/>
<path d="M18.475 45.1122V48.117C18.475 48.4266 18.5548 48.6703 18.7194 48.8581C18.8841 49.0459 19.1236 49.1372 19.4379 49.1372C19.7522 49.1372 19.9917 49.0459 20.1563 48.8581C20.321 48.6703 20.4008 48.4216 20.4008 48.117V45.1122H20.9346V48.117C20.9346 48.3404 20.8997 48.5434 20.8299 48.7312C20.76 48.919 20.6602 49.0814 20.5305 49.2184C20.4008 49.3555 20.2411 49.4621 20.0565 49.5382C19.8719 49.6143 19.6674 49.6549 19.4379 49.6549C19.2134 49.6549 19.0038 49.6143 18.8192 49.5382C18.6346 49.4621 18.475 49.3555 18.3453 49.2184C18.2155 49.0814 18.1108 48.919 18.0459 48.7312C17.9761 48.5434 17.9411 48.3404 17.9411 48.117V45.1122H18.475Z" fill="white"/>
<path d="M21.4685 45.1122H24.2674V45.6249H23.1349V49.589H22.6011V45.6249H21.4685V45.1122Z" fill="white"/>
<path d="M27.2609 48.2693C27.4156 48.5332 27.6152 48.7413 27.8596 48.8885C28.1091 49.0357 28.3735 49.1118 28.6629 49.1118C28.8725 49.1118 29.062 49.0865 29.2367 49.0306C29.4113 48.9748 29.5709 48.8987 29.7106 48.7971C29.8553 48.6956 29.9751 48.5789 30.0748 48.4469V49.1626C29.8902 49.3301 29.6907 49.4519 29.4712 49.5331C29.2516 49.6143 28.9822 49.6549 28.6579 49.6549C28.3536 49.6549 28.0642 49.5991 27.7998 49.4874C27.5354 49.3758 27.3009 49.2134 27.0963 49.0053C26.8967 48.7972 26.7371 48.5535 26.6223 48.2744C26.5076 47.9952 26.4527 47.6856 26.4527 47.3506C26.4527 47.0156 26.5076 46.7111 26.6223 46.4319C26.7371 46.1527 26.8917 45.904 27.0963 45.701C27.2959 45.4929 27.5304 45.3356 27.7998 45.2188C28.0642 45.1072 28.3536 45.0513 28.6579 45.0513C28.9822 45.0513 29.2516 45.0919 29.4712 45.1731C29.6907 45.2544 29.8902 45.3762 30.0748 45.5437V46.2593C29.9751 46.1274 29.8503 46.0106 29.7106 45.9091C29.566 45.8076 29.4113 45.7315 29.2367 45.6756C29.062 45.6198 28.8725 45.5944 28.6629 45.5944C28.3735 45.5944 28.1041 45.6706 27.8596 45.8177C27.6102 45.9649 27.4106 46.173 27.2609 46.437C27.1063 46.7009 27.0314 47.0055 27.0314 47.3557C27.0314 47.7008 27.1113 48.0053 27.2609 48.2693Z" fill="white"/>
<path d="M30.943 47.3303C31.0727 47.1019 31.2523 46.9192 31.4818 46.7872C31.7063 46.6552 31.9608 46.5893 32.2452 46.5893C32.5295 46.5893 32.784 46.6552 33.0085 46.7872C33.233 46.9192 33.4126 47.1019 33.5423 47.3303C33.6721 47.5587 33.7419 47.8226 33.7419 48.1221C33.7419 48.4165 33.6771 48.6804 33.5423 48.9139C33.4126 49.1474 33.233 49.3301 33.0085 49.4621C32.784 49.594 32.5295 49.66 32.2452 49.66C31.9658 49.66 31.7113 49.594 31.4818 49.4621C31.2573 49.3301 31.0777 49.1474 30.943 48.9139C30.8133 48.6804 30.7434 48.4165 30.7434 48.1221C30.7434 47.8226 30.8083 47.5587 30.943 47.3303ZM31.382 48.6652C31.4668 48.8225 31.5866 48.9494 31.7363 49.0408C31.8859 49.1322 32.0556 49.1778 32.2402 49.1778C32.4298 49.1778 32.5994 49.1322 32.7441 49.0408C32.8937 48.9494 33.0085 48.8225 33.0983 48.6652C33.1831 48.5079 33.228 48.3251 33.228 48.1221C33.228 47.9191 33.1831 47.7364 33.0983 47.5739C33.0135 47.4115 32.8937 47.2897 32.7441 47.1983C32.5944 47.107 32.4248 47.0664 32.2402 47.0664C32.0506 47.0664 31.8809 47.1121 31.7363 47.1983C31.5866 47.2897 31.4718 47.4115 31.382 47.5739C31.2972 47.7364 31.2523 47.914 31.2523 48.1221C31.2523 48.3251 31.2922 48.5079 31.382 48.6652Z" fill="white"/>
<path d="M38.3868 49.594H37.8829V47.8023C37.8829 47.5485 37.838 47.3658 37.7482 47.244C37.6584 47.1222 37.5187 47.0664 37.3291 47.0664C37.1894 47.0664 37.0697 47.0968 36.9699 47.1526C36.8701 47.2085 36.7903 47.2948 36.7354 47.4064C36.6805 47.5181 36.6556 47.6501 36.6556 47.8023V49.594H36.1517V47.8023C36.1517 47.5485 36.1068 47.3658 36.017 47.244C35.9272 47.1222 35.7875 47.0664 35.5979 47.0664C35.4582 47.0664 35.3384 47.0968 35.2387 47.1526C35.1389 47.2085 35.059 47.2948 35.0042 47.4064C34.9493 47.5181 34.9243 47.6501 34.9243 47.8023V49.594H34.4254V46.6502H34.9293V47.0765C35.0191 46.909 35.1289 46.7872 35.2586 46.706C35.3883 46.6248 35.548 46.5842 35.7276 46.5842C35.9272 46.5842 36.1018 46.6298 36.2465 46.7263C36.3912 46.8227 36.4959 46.9598 36.5658 47.1323C36.6656 46.9496 36.7903 46.8126 36.945 46.7212C37.0946 46.6299 37.2693 46.5842 37.4588 46.5842C37.6534 46.5842 37.8231 46.6298 37.9627 46.7161C38.1024 46.8075 38.2072 46.9344 38.2821 47.107C38.3569 47.2795 38.3918 47.4876 38.3918 47.7313V49.594H38.3868Z" fill="white"/>
<path d="M39.2999 51V46.6502H39.8038V51H39.2999ZM42.029 48.9393C41.8992 49.1677 41.7246 49.3453 41.5101 49.4722C41.2955 49.594 41.0561 49.66 40.7916 49.66C40.5522 49.66 40.3426 49.5991 40.158 49.4722C39.9734 49.3504 39.8337 49.1727 39.7289 48.9393C39.6242 48.7109 39.5743 48.4368 39.5743 48.1221C39.5743 47.8023 39.6242 47.5282 39.7289 47.2998C39.8337 47.0714 39.9734 46.8938 40.158 46.772C40.3426 46.6502 40.5522 46.5842 40.7916 46.5842C41.0561 46.5842 41.2955 46.6451 41.5101 46.772C41.7246 46.8938 41.8992 47.0714 42.029 47.2998C42.1587 47.5282 42.2235 47.8023 42.2235 48.1221C42.2235 48.4368 42.1587 48.7109 42.029 48.9393ZM41.5799 47.5435C41.4901 47.3861 41.3704 47.2643 41.2207 47.1831C41.071 47.1019 40.9064 47.0613 40.7268 47.0613C40.5821 47.0613 40.4374 47.1019 40.2927 47.1831C40.148 47.2643 40.0333 47.3861 39.9385 47.5435C39.8487 47.7008 39.7988 47.8937 39.7988 48.117C39.7988 48.3454 39.8437 48.5332 39.9385 48.6906C40.0283 48.8479 40.148 48.9697 40.2927 49.0509C40.4374 49.1321 40.5821 49.1727 40.7268 49.1727C40.9064 49.1727 41.071 49.1321 41.2207 49.0509C41.3704 48.9697 41.4901 48.853 41.5799 48.6906C41.6697 48.5332 41.7146 48.3403 41.7146 48.117C41.7146 47.8937 41.6697 47.7008 41.5799 47.5435Z" fill="white"/>
<path d="M43.5756 48.985C43.6804 49.1119 43.835 49.1778 44.0346 49.1778C44.1793 49.1778 44.309 49.1474 44.4238 49.0865C44.5335 49.0256 44.6183 48.9393 44.6832 48.8276C44.7431 48.716 44.773 48.5891 44.773 48.4419V46.6502H45.2769V49.594H44.773V49.1322C44.6782 49.3047 44.5585 49.4367 44.4138 49.5281C44.2691 49.6143 44.1045 49.66 43.9099 49.66C43.6105 49.66 43.3661 49.5534 43.1864 49.3453C43.0068 49.1372 42.917 48.8581 42.917 48.5079V46.6502H43.4209V48.4419C43.4209 48.6754 43.4708 48.8581 43.5756 48.985Z" fill="white"/>
<path d="M47.2227 46.6502V47.1323H45.7758V46.6502H47.2227ZM46.7537 45.6249V49.5889H46.2498V45.6249H46.7537Z" fill="white"/>
<path d="M48.1307 49.4621C47.9212 49.3301 47.7615 49.1524 47.6468 48.919C47.532 48.6906 47.4722 48.4216 47.4722 48.117C47.4722 47.8125 47.532 47.5435 47.6518 47.31C47.7715 47.0816 47.9411 46.8989 48.1557 46.772C48.3702 46.6451 48.6197 46.5791 48.9091 46.5791C49.1934 46.5791 49.4379 46.64 49.6425 46.7618C49.847 46.8836 50.0017 47.0562 50.1115 47.2846C50.2212 47.513 50.2761 47.777 50.2761 48.0916C50.2761 48.1221 50.2761 48.1526 50.2711 48.183C50.2711 48.2135 50.2661 48.2338 50.2661 48.2439H47.7965V47.8125H49.872L49.6724 48.1069C49.6874 48.0866 49.6973 48.051 49.7123 48.0054C49.7273 47.9597 49.7323 47.9241 49.7323 47.8937C49.7323 47.7211 49.6973 47.5689 49.6275 47.442C49.5576 47.3151 49.4629 47.2136 49.3431 47.1425C49.2234 47.0714 49.0787 47.0359 48.914 47.0359C48.7195 47.0359 48.5548 47.0765 48.4201 47.1628C48.2854 47.244 48.1806 47.3658 48.1058 47.5232C48.031 47.6805 47.996 47.8683 47.991 48.0967C47.991 48.3251 48.026 48.5231 48.0958 48.6855C48.1657 48.8479 48.2704 48.9697 48.4101 49.056C48.5498 49.1423 48.7145 49.1829 48.914 49.1829C49.1086 49.1829 49.2832 49.1372 49.4379 49.0509C49.5876 48.9647 49.7173 48.8327 49.8221 48.65L50.2312 48.9139C50.0815 49.1626 49.8919 49.3504 49.6624 49.4722C49.4329 49.5991 49.1635 49.66 48.8542 49.66C48.5798 49.6549 48.3403 49.594 48.1307 49.4621Z" fill="white"/>
<path d="M51.4685 49.594H50.9646V46.6502H51.4685V49.594ZM52.162 47.1019C52.1071 47.0765 52.0373 47.0664 51.9525 47.0664C51.8277 47.0664 51.7279 47.0968 51.6581 47.1628C51.5882 47.2288 51.5384 47.3151 51.5084 47.4267C51.4835 47.5384 51.4685 47.6653 51.4685 47.8023H51.244C51.244 47.5688 51.2839 47.3607 51.3687 47.178C51.4485 46.9953 51.5583 46.8532 51.688 46.7466C51.8177 46.64 51.9525 46.5842 52.0822 46.5842C52.187 46.5842 52.2867 46.5994 52.3765 46.6248C52.4663 46.6502 52.5512 46.706 52.626 46.7872L52.3516 47.2085C52.2768 47.1628 52.2169 47.1222 52.162 47.1019Z" fill="white"/>
<path d="M55.5197 48.7109C55.6295 48.8479 55.7542 48.9545 55.8939 49.0306C56.0336 49.1068 56.1883 49.1474 56.3679 49.1474C56.6024 49.1474 56.792 49.0814 56.9317 48.9494C57.0764 48.8175 57.1462 48.65 57.1462 48.4419C57.1462 48.2439 57.1013 48.0815 57.0065 47.9597C56.9117 47.8379 56.792 47.7414 56.6473 47.6704C56.4976 47.5942 56.338 47.5282 56.1733 47.4673C56.0635 47.4267 55.9438 47.3811 55.8091 47.3151C55.6744 47.2542 55.5447 47.173 55.4249 47.0765C55.3052 46.9801 55.2054 46.8633 55.1256 46.7212C55.0458 46.5791 55.0108 46.4065 55.0108 46.2035C55.0108 45.9802 55.0657 45.7822 55.1755 45.6097C55.2852 45.4371 55.4349 45.295 55.6295 45.1985C55.8241 45.097 56.0436 45.0463 56.2881 45.0463C56.5275 45.0463 56.7371 45.0919 56.9117 45.1833C57.0913 45.2747 57.241 45.3914 57.3657 45.5335C57.4905 45.6756 57.5902 45.8279 57.6601 45.9853L57.2011 46.2543C57.1462 46.1426 57.0764 46.036 56.9915 45.9294C56.9067 45.8228 56.8069 45.7366 56.6872 45.6655C56.5675 45.5995 56.4228 45.564 56.2481 45.564C56.0087 45.564 55.834 45.6249 55.7243 45.7416C55.6145 45.8584 55.5596 45.9903 55.5596 46.1325C55.5596 46.2543 55.5896 46.371 55.6544 46.4725C55.7193 46.5791 55.8241 46.6755 55.9737 46.7669C56.1234 46.8583 56.323 46.9496 56.5824 47.041C56.7022 47.0816 56.8219 47.1374 56.9516 47.2085C57.0813 47.2745 57.2011 47.3608 57.3108 47.4673C57.4206 47.5739 57.5154 47.6957 57.5853 47.8429C57.6551 47.9901 57.69 48.1678 57.69 48.3708C57.69 48.5688 57.6551 48.7464 57.5803 48.9037C57.5054 49.0611 57.4056 49.1981 57.2759 49.3047C57.1462 49.4164 57.0015 49.5027 56.8419 49.5585C56.6822 49.6194 56.5126 49.6499 56.338 49.6499C56.0985 49.6499 55.8789 49.5991 55.6744 49.4925C55.4698 49.3859 55.2952 49.2489 55.1405 49.0763C54.9859 48.9037 54.8612 48.721 54.7664 48.5231L55.1954 48.2287C55.3052 48.4165 55.41 48.5738 55.5197 48.7109Z" fill="white"/>
<path d="M58.4035 47.3303C58.5332 47.1019 58.7128 46.9192 58.9423 46.7872C59.1668 46.6552 59.4213 46.5893 59.7007 46.5893C59.9851 46.5893 60.2395 46.6552 60.464 46.7872C60.6885 46.9192 60.8681 47.1019 60.9979 47.3303C61.1276 47.5587 61.1974 47.8226 61.1974 48.1221C61.1974 48.4165 61.1326 48.6804 60.9979 48.9139C60.8681 49.1474 60.6885 49.3301 60.464 49.4621C60.2395 49.594 59.9851 49.66 59.7007 49.66C59.4213 49.66 59.1668 49.594 58.9423 49.4621C58.7178 49.3301 58.5382 49.1474 58.4035 48.9139C58.2738 48.6804 58.2039 48.4165 58.2039 48.1221C58.2039 47.8226 58.2688 47.5587 58.4035 47.3303ZM58.8425 48.6652C58.9274 48.8225 59.0471 48.9494 59.1968 49.0408C59.3464 49.1322 59.5161 49.1778 59.7007 49.1778C59.8903 49.1778 60.0599 49.1322 60.2046 49.0408C60.3543 48.9494 60.469 48.8225 60.5588 48.6652C60.6436 48.5079 60.6885 48.3251 60.6885 48.1221C60.6885 47.9191 60.6436 47.7364 60.5588 47.5739C60.474 47.4115 60.3543 47.2897 60.2046 47.1983C60.0549 47.107 59.8853 47.0664 59.7007 47.0664C59.5111 47.0664 59.3415 47.1121 59.1968 47.1983C59.0471 47.2897 58.9323 47.4115 58.8425 47.5739C58.7577 47.7364 58.7128 47.914 58.7128 48.1221C58.7128 48.3251 58.7577 48.5079 58.8425 48.6652Z" fill="white"/>
<path d="M62.2451 48.6652C62.33 48.8225 62.4497 48.9494 62.5994 49.0408C62.749 49.1321 62.9187 49.1778 63.1033 49.1778C63.2579 49.1778 63.4026 49.1524 63.5423 49.1068C63.677 49.056 63.7968 48.99 63.8966 48.9088C63.9963 48.8276 64.0662 48.7362 64.1111 48.6449V49.2844C64.0113 49.4062 63.8666 49.4976 63.682 49.5636C63.4974 49.6296 63.3028 49.6651 63.1083 49.6651C62.8289 49.6651 62.5744 49.5991 62.3499 49.4671C62.1254 49.3352 61.9458 49.1524 61.8111 48.919C61.6814 48.6855 61.6115 48.4216 61.6115 48.1272C61.6115 47.8277 61.6764 47.5638 61.8111 47.3354C61.9408 47.107 62.1204 46.9242 62.3499 46.7923C62.5744 46.6603 62.8289 46.5943 63.1083 46.5943C63.3028 46.5943 63.4974 46.6299 63.682 46.6958C63.8666 46.7618 64.0113 46.8532 64.1111 46.975V47.6145C64.0712 47.5181 63.9963 47.4267 63.8966 47.3455C63.7968 47.2643 63.677 47.1983 63.5423 47.1526C63.4076 47.1019 63.2579 47.0816 63.1033 47.0816C62.9137 47.0816 62.7441 47.1273 62.5994 47.2136C62.4497 47.3049 62.3349 47.4267 62.2451 47.5892C62.1603 47.7516 62.1154 47.9292 62.1154 48.1373C62.1154 48.3251 62.1553 48.5078 62.2451 48.6652Z" fill="white"/>
<path d="M64.9992 45.1833C65.069 45.1173 65.1489 45.0818 65.2437 45.0818C65.3384 45.0818 65.4233 45.1173 65.4881 45.1833C65.553 45.2493 65.5879 45.3356 65.5879 45.432C65.5879 45.5234 65.553 45.6097 65.4881 45.6807C65.4233 45.7518 65.3384 45.7873 65.2437 45.7873C65.1538 45.7873 65.069 45.7518 64.9992 45.6807C64.9293 45.6097 64.8944 45.5284 64.8944 45.432C64.8944 45.3356 64.9293 45.2544 64.9992 45.1833ZM65.4931 46.6502V49.594H64.9892V46.6502H65.4931Z" fill="white"/>
<path d="M66.935 49.4621C66.7254 49.3301 66.5658 49.1524 66.451 48.919C66.3363 48.6906 66.2764 48.4216 66.2764 48.117C66.2764 47.8125 66.3363 47.5435 66.456 47.31C66.5757 47.0816 66.7454 46.8989 66.9599 46.772C67.1745 46.6451 67.4239 46.5791 67.7133 46.5791C67.9977 46.5791 68.2421 46.64 68.4467 46.7618C68.6513 46.8836 68.8059 47.0562 68.9157 47.2846C69.0254 47.513 69.0803 47.777 69.0803 48.0916C69.0803 48.1221 69.0803 48.1526 69.0753 48.183C69.0753 48.2135 69.0703 48.2338 69.0703 48.2439H66.6007V47.8125H68.6762L68.4766 48.1069C68.4916 48.0866 68.5016 48.051 68.5165 48.0054C68.5315 47.9597 68.5365 47.9241 68.5365 47.8937C68.5365 47.7211 68.5016 47.5689 68.4317 47.442C68.3619 47.3151 68.2671 47.2136 68.1473 47.1425C68.0276 47.0714 67.8829 47.0359 67.7183 47.0359C67.5237 47.0359 67.3591 47.0765 67.2243 47.1628C67.0896 47.244 66.9849 47.3658 66.91 47.5232C66.8352 47.6805 66.8003 47.8683 66.7953 48.0967C66.7953 48.3251 66.8302 48.5231 66.9 48.6855C66.9699 48.8479 67.0747 48.9697 67.2144 49.056C67.3541 49.1423 67.5187 49.1829 67.7183 49.1829C67.9129 49.1829 68.0875 49.1372 68.2421 49.0509C68.3918 48.9647 68.5215 48.8327 68.6263 48.65L69.0354 48.9139C68.8857 49.1626 68.6962 49.3504 68.4667 49.4722C68.2371 49.5991 67.9677 49.66 67.6584 49.66C67.379 49.6549 67.1395 49.594 66.935 49.4621Z" fill="white"/>
<path d="M70.7717 46.6502V47.1323H69.3248V46.6502H70.7717ZM70.3027 45.6249V49.5889H69.7988V45.6249H70.3027Z" fill="white"/>
<path d="M71.6847 51H71.1209L71.9142 49.1778L70.8066 46.6502H71.4053L72.3233 48.9545L72.1137 48.9291L73.0068 46.6502H73.5706L71.6847 51Z" fill="white"/>
</svg>
