<svg id="Ñëîé_1" data-name="Ñëîé 1" xmlns="http://www.w3.org/2000/svg" viewBox="0 0 221.86 128.5"><defs><style>.cls-1{fill:#42e8e0;}</style></defs><title>neon</title><path class="cls-1" d="M426.74,336.34a6.18,6.18,0,0,1-3-.77L289.76,258.24a2.51,2.51,0,0,1-1.45-2,1.94,1.94,0,0,1,1.1-1.66l79.93-46.15a5.94,5.94,0,0,1,5.43.21l133.94,77.33a2.49,2.49,0,0,1,1.45,2,2,2,0,0,1-1.09,1.66l-79.93,46.15A5,5,0,0,1,426.74,336.34Zm-136.5-78.93,133.94,77.33a5.08,5.08,0,0,0,4.48.21l79.93-46.15a1.06,1.06,0,0,0,.62-.83c0-.4-.37-.85-1-1.2L374.29,209.44a5.08,5.08,0,0,0-4.48-.21l-79.93,46.15a1.06,1.06,0,0,0-.62.83c0,.4.37.85,1,1.2Z" transform="translate(-288.31 -207.84)"/></svg>